<svg width="1200" height="1083" viewBox="0 0 1200 1083" fill="none" xmlns="http://www.w3.org/2000/svg">
<g clip-path="url(#clip0)">
<path d="M926.22 1046.22L909.163 1052.18L879.302 985.475L904.476 976.68L926.22 1046.22Z" fill="#FFB8B8"/>
<path d="M895.371 1051.29L928.263 1039.79L935.109 1061.69L881.506 1080.42C880.607 1077.54 880.252 1074.51 880.463 1071.49C880.673 1068.47 881.444 1065.52 882.731 1062.82C884.019 1060.11 885.798 1057.7 887.966 1055.72C890.135 1053.74 892.651 1052.24 895.371 1051.29V1051.29Z" fill="#2F2E41"/>
<path d="M813.701 1062.78L795.738 1062.78L787.193 989.539L813.704 989.54L813.701 1062.78Z" fill="#FFB8B8"/>
<path d="M782.907 1057.36H817.55V1080.41H761.095C761.095 1077.39 761.659 1074.39 762.755 1071.59C763.851 1068.79 765.458 1066.25 767.483 1064.11C769.509 1061.97 771.913 1060.27 774.56 1059.11C777.206 1057.95 780.042 1057.36 782.907 1057.36V1057.36Z" fill="#2F2E41"/>
<path d="M797.098 790.897L796.182 795.182C783.805 853.124 779.397 937.431 783.094 996.703L785.95 1042.49C786.048 1044.06 786.707 1045.53 787.793 1046.6C788.879 1047.68 790.311 1048.28 791.798 1048.28H813.334C814.77 1048.28 816.155 1047.72 817.228 1046.71C818.301 1045.7 818.987 1044.31 819.154 1042.81L835.869 892.621C836.026 891.213 836.634 889.905 837.593 888.914C838.551 887.924 839.802 887.31 841.137 887.177C842.472 887.043 843.81 887.397 844.927 888.18C846.045 888.963 846.875 890.128 847.278 891.479L890.598 1027.2C890.953 1028.39 891.641 1029.44 892.571 1030.21C893.501 1030.98 894.63 1031.43 895.809 1031.51L928.705 1033.76C929.654 1033.82 930.604 1033.64 931.473 1033.23C932.342 1032.82 933.103 1032.19 933.691 1031.4C934.279 1030.61 934.675 1029.68 934.847 1028.69C935.018 1027.7 934.959 1026.68 934.675 1025.72L914.874 968.169C899.574 916.518 891.35 838.036 890.452 783.92C890.437 783.066 890.256 782.225 889.92 781.449C889.583 780.672 889.099 779.978 888.496 779.409C887.894 778.84 887.187 778.409 886.419 778.142C885.652 777.876 884.84 777.781 884.036 777.861L802.259 786.094C801.03 786.218 799.869 786.749 798.942 787.612C798.015 788.474 797.37 789.624 797.098 790.897Z" fill="#2F2E41"/>
<path d="M844.983 550.31C864.858 550.31 880.969 533.278 880.969 512.268C880.969 491.259 864.858 474.227 844.983 474.227C825.108 474.227 808.996 491.259 808.996 512.268C808.996 533.278 825.108 550.31 844.983 550.31Z" fill="#A0616A"/>
<path d="M821.36 803.361C814.193 803.345 807.031 802.946 799.902 802.164C797.612 801.901 795.51 800.701 794.046 798.821C792.582 796.941 791.871 794.531 792.066 792.104L804.336 666.792C807.295 631.347 811.866 597.131 834.995 568.154C835.78 567.171 836.75 566.371 837.842 565.804C838.934 565.237 840.126 564.916 841.341 564.859L842.211 564.824C851.334 564.422 855.538 564.773 856.721 566.025L863.084 572.653C901.889 602.989 903.501 795.165 893.94 791.378C892.091 790.649 870.007 791.381 868.47 792.49C856.004 801.472 835.971 803.359 821.36 803.361Z" fill="#00CAAA"/>
<path d="M680.165 733.804C681.081 731.743 682.413 729.92 684.068 728.462C685.723 727.005 687.66 725.948 689.743 725.368C691.825 724.787 694.003 724.696 696.123 725.102C698.242 725.507 700.252 726.399 702.01 727.714L744.594 695.511L745.628 724.252L705.03 750.426C702.744 753.402 699.505 755.389 695.926 756.009C692.348 756.629 688.678 755.839 685.613 753.79C682.548 751.741 680.3 748.575 679.296 744.891C678.292 741.208 678.601 737.263 680.165 733.804Z" fill="#A0616A"/>
<path d="M722.457 742.301L708.034 715.461L839.414 615.32C842.379 613.06 845.752 611.471 849.324 610.652C852.896 609.833 856.59 609.801 860.174 610.558C863.758 611.316 867.156 612.847 870.155 615.056C873.154 617.264 875.69 620.103 877.605 623.394C879.519 626.686 880.771 630.359 881.282 634.185C881.793 638.011 881.552 641.907 880.574 645.63C879.596 649.353 877.903 652.823 875.599 655.823C873.296 658.822 870.431 661.288 867.186 663.065L722.457 742.301Z" fill="#00CAAA"/>
<path d="M861.151 544.431C862.37 545.702 863.981 546.465 865.689 546.581C867.397 546.696 869.087 546.157 870.449 545.061C878.931 538.415 886.376 530.143 890.783 520.052C895.832 508.49 896.395 494.302 890.308 483.313C885.161 474.023 876.074 468.029 867.017 463.106C863.5 461.008 859.712 459.465 855.773 458.525C851.792 457.597 847.626 458.308 844.123 460.513C842.409 461.648 841.059 463.304 840.248 465.263C839.438 467.222 839.205 469.394 839.58 471.495C835.229 466.248 829.657 462.294 823.416 460.025C819.486 458.4 815.182 458.07 811.071 459.079C805.324 460.802 801.128 466.2 798.833 472.031C796.977 476.466 796.336 481.363 796.983 486.164C797.324 488.553 798.135 490.84 799.364 492.877C800.593 494.914 802.214 496.656 804.12 497.989C808.871 501.097 814.934 500.873 820.391 499.603C825.848 498.333 831.13 496.125 836.693 495.567C842.256 495.008 848.45 496.474 851.836 501.174C854.22 504.483 854.832 508.807 855.367 512.928L858.151 534.363C858.379 537.464 859.128 540.497 860.363 543.319C860.577 543.726 860.842 544.1 861.151 544.431V544.431Z" fill="#2F2E41"/>
<path d="M938.797 810.975C937.051 809.642 935.603 807.92 934.554 805.931C933.506 803.942 932.883 801.734 932.729 799.463C932.575 797.191 932.894 794.912 933.664 792.786C934.433 790.659 935.635 788.736 937.183 787.154L915.137 736.951L942.046 741.203L958.856 788.224C961.199 791.15 962.445 794.883 962.358 798.716C962.272 802.548 960.858 806.214 958.386 809.018C955.913 811.822 952.553 813.57 948.943 813.931C945.332 814.292 941.722 813.24 938.797 810.975V810.975Z" fill="#A0616A"/>
<path d="M953.539 757.646L928.149 772.893L833.417 634.012C831.279 630.878 829.776 627.311 829.001 623.535C828.226 619.76 828.196 615.855 828.912 612.066C829.629 608.278 831.078 604.686 833.167 601.515C835.256 598.345 837.941 595.664 841.055 593.64C844.169 591.616 847.643 590.293 851.263 589.753C854.882 589.213 858.568 589.468 862.09 590.501C865.611 591.535 868.894 593.325 871.732 595.76C874.57 598.196 876.902 601.223 878.583 604.654L953.539 757.646Z" fill="#00CAAA"/>
<path d="M722.277 259.009H716.678V96.8602C716.678 71.9694 707.324 48.098 690.674 30.4975C674.024 12.8971 651.442 3.00922 627.896 3.0092H302.905C279.359 3.0092 256.777 12.897 240.127 30.4975C223.477 48.098 214.123 71.9694 214.123 96.8602V986.436C214.123 1011.33 223.477 1035.2 240.127 1052.8C256.777 1070.4 279.359 1080.29 302.905 1080.29H627.896C651.442 1080.29 674.023 1070.4 690.673 1052.8C707.323 1035.2 716.676 1011.33 716.676 986.436V374.43H722.275L722.277 259.009Z" fill="#E6E6E6"/>
<path d="M631.478 27.4169H589.059C591.01 32.4731 591.755 37.959 591.227 43.3912C590.7 48.8233 588.917 54.035 586.036 58.5671C583.154 63.0992 579.262 66.8126 574.703 69.3801C570.144 71.9475 565.057 73.2903 559.892 73.2901H373.708C368.543 73.2899 363.457 71.9467 358.898 69.3791C354.339 66.8114 350.448 63.0979 347.566 58.5659C344.685 54.0339 342.902 48.8224 342.375 43.3905C341.848 37.9585 342.593 32.4729 344.544 27.4169H304.922C287.338 27.4169 270.474 34.801 258.04 47.9449C245.606 61.0888 238.62 78.9157 238.62 97.5039V985.789C238.62 1004.38 245.606 1022.2 258.04 1035.35C270.474 1048.49 287.338 1055.88 304.922 1055.88H631.478C649.062 1055.88 665.926 1048.49 678.36 1035.35C690.794 1022.2 697.779 1004.38 697.779 985.789V97.5025C697.779 78.9145 690.793 61.088 678.359 47.9444C665.925 34.8008 649.062 27.4169 631.478 27.4169H631.478Z" fill="white"/>
<path d="M468.2 552.854C437.772 552.854 408.028 543.316 382.728 525.446C357.428 507.576 337.709 482.176 326.065 452.46C314.42 422.743 311.374 390.043 317.31 358.496C323.246 326.949 337.899 297.971 359.414 275.227C380.93 252.483 408.343 236.994 438.186 230.718C468.029 224.443 498.963 227.664 527.074 239.973C555.186 252.282 579.214 273.127 596.118 299.871C613.023 326.616 622.046 358.059 622.046 390.224C622 433.341 605.776 474.678 576.935 505.167C548.093 535.655 508.988 552.805 468.2 552.854V552.854ZM468.2 230.691C438.352 230.691 409.174 240.048 384.356 257.577C359.538 275.107 340.194 300.023 328.772 329.173C317.35 358.324 314.361 390.401 320.184 421.347C326.007 452.293 340.38 480.719 361.486 503.03C382.592 525.341 409.483 540.535 438.758 546.691C468.033 552.846 498.377 549.687 525.953 537.612C553.529 525.538 577.099 505.09 593.682 478.855C610.265 452.62 619.116 421.776 619.116 390.224C619.071 347.928 603.156 307.378 574.864 277.47C546.571 247.562 508.211 230.739 468.2 230.691V230.691Z" fill="#3F3D56"/>
<path d="M524.705 342.98C537.881 331.211 545.884 312.619 543.785 294.52C541.686 276.42 528.687 259.781 511.824 255.938C494.962 252.095 475.74 262.734 470.618 280.146C467.799 246.576 464.551 211.598 447.667 183.01C432.379 157.124 405.899 138.601 377.201 135.287C348.503 131.974 318.288 144.489 300.39 168.433C282.492 192.377 278.11 227.187 290.645 254.677C299.879 274.928 316.892 289.999 334.717 302.26C391.585 341.377 462.131 354.594 529.255 344.151L524.705 342.98Z" fill="#E6E6E6"/>
<path d="M328.769 145.183C352.448 165.571 374.172 188.374 393.625 213.262C424.069 252.077 448.705 295.596 466.674 342.303C467.989 345.71 462.755 347.194 461.454 343.824C432.054 267.916 385.119 201.011 324.942 149.229C322.239 146.903 326.089 142.876 328.769 145.183V145.183Z" fill="white"/>
<path d="M336.826 712.386C345.728 712.386 352.944 704.758 352.944 695.349C352.944 685.939 345.728 678.311 336.826 678.311C327.925 678.311 320.709 685.939 320.709 695.349C320.709 704.758 327.925 712.386 336.826 712.386Z" fill="#3F3D56"/>
<path d="M603.969 707.74H398.841C395.732 707.74 392.751 706.434 390.552 704.11C388.354 701.787 387.119 698.635 387.119 695.349C387.119 692.062 388.354 688.911 390.552 686.587C392.751 684.263 395.732 682.958 398.841 682.958H603.969C607.078 682.958 610.059 684.263 612.258 686.587C614.456 688.911 615.691 692.062 615.691 695.349C615.691 698.635 614.456 701.787 612.258 704.11C610.059 706.434 607.078 707.74 603.969 707.74Z" fill="#CCCCCC"/>
<path d="M540.348 707.889H397.993C394.847 707.889 391.829 706.568 389.605 704.216C387.38 701.864 386.13 698.674 386.13 695.349C386.13 692.023 387.38 688.833 389.605 686.481C391.829 684.13 394.847 682.808 397.993 682.808H540.348C543.495 682.808 546.512 684.13 548.737 686.481C550.962 688.833 552.211 692.023 552.211 695.349C552.211 698.674 550.962 701.864 548.737 704.216C546.512 706.568 543.495 707.889 540.348 707.889Z" fill="#00CAAA"/>
<path d="M336.826 786.731C345.728 786.731 352.944 779.103 352.944 769.694C352.944 760.284 345.728 752.656 336.826 752.656C327.925 752.656 320.709 760.284 320.709 769.694C320.709 779.103 327.925 786.731 336.826 786.731Z" fill="#3F3D56"/>
<path d="M603.969 782.085H398.841C395.732 782.085 392.751 780.779 390.552 778.456C388.354 776.132 387.119 772.98 387.119 769.694C387.119 766.408 388.354 763.256 390.552 760.932C392.751 758.609 395.732 757.303 398.841 757.303H603.969C607.078 757.303 610.059 758.609 612.258 760.932C614.456 763.256 615.691 766.408 615.691 769.694C615.691 772.98 614.456 776.132 612.258 778.456C610.059 780.779 607.078 782.085 603.969 782.085Z" fill="#CCCCCC"/>
<path d="M336.826 861.077C345.728 861.077 352.944 853.449 352.944 844.039C352.944 834.63 345.728 827.002 336.826 827.002C327.925 827.002 320.709 834.63 320.709 844.039C320.709 853.449 327.925 861.077 336.826 861.077Z" fill="#3F3D56"/>
<path d="M603.969 856.43H398.841C395.732 856.43 392.751 855.124 390.552 852.801C388.354 850.477 387.119 847.325 387.119 844.039C387.119 840.753 388.354 837.601 390.552 835.277C392.751 832.954 395.732 831.648 398.841 831.648H603.969C607.078 831.648 610.059 832.954 612.258 835.277C614.456 837.601 615.691 840.753 615.691 844.039C615.691 847.325 614.456 850.477 612.258 852.801C610.059 855.124 607.078 856.43 603.969 856.43Z" fill="#CCCCCC"/>
<path d="M493.462 782.234H397.993C394.847 782.234 391.829 780.913 389.605 778.561C387.38 776.209 386.13 773.02 386.13 769.694C386.13 766.368 387.38 763.178 389.605 760.827C391.829 758.475 394.847 757.154 397.993 757.154H493.462C496.608 757.154 499.626 758.475 501.85 760.827C504.075 763.178 505.325 766.368 505.325 769.694C505.325 773.02 504.075 776.209 501.85 778.561C499.626 780.913 496.608 782.234 493.462 782.234V782.234Z" fill="#00CAAA"/>
<path d="M578.444 856.579H397.993C394.847 856.579 391.829 855.258 389.605 852.906C387.38 850.555 386.13 847.365 386.13 844.039C386.13 840.713 387.38 837.524 389.605 835.172C391.829 832.82 394.847 831.499 397.993 831.499H578.444C581.59 831.499 584.607 832.82 586.832 835.172C589.057 837.524 590.307 840.713 590.307 844.039C590.307 847.365 589.057 850.555 586.832 852.906C584.607 855.258 581.59 856.579 578.444 856.579V856.579Z" fill="#00CAAA"/>
<path d="M549.655 364.936H529.517V302.03C529.519 300.182 530.214 298.411 531.451 297.104C532.687 295.797 534.363 295.063 536.111 295.06H543.062C544.81 295.063 546.486 295.797 547.722 297.104C548.958 298.411 549.653 300.182 549.655 302.03V364.936Z" fill="#3F3D56"/>
<path d="M561.864 471.982H369.367L368.676 357.295C368.668 355.523 368.998 353.768 369.644 352.133C370.291 350.499 371.241 349.018 372.44 347.779L420.797 297.989C423.091 295.619 426.165 294.281 429.372 294.256L510.307 293.474C512.142 293.462 513.957 293.876 515.624 294.687C517.292 295.498 518.77 296.686 519.955 298.167L519.962 298.176L558.403 348.011C560.639 350.915 561.861 354.544 561.864 358.288L561.864 471.982Z" fill="#3F3D56"/>
<path d="M561.864 471.982H458.417V369.198C458.418 366.067 459.474 363.038 461.396 360.655L506.342 304.951V304.952C507.51 303.501 508.962 302.337 510.598 301.539C512.235 300.74 514.015 300.328 515.817 300.329H515.864C517.674 300.335 519.461 300.758 521.1 301.57C522.739 302.381 524.191 303.561 525.354 305.027L558.946 347.301C560.83 349.674 561.863 352.672 561.864 355.769V471.982Z" fill="#00CAAA"/>
<path d="M517.983 432.504H503.016C502.045 432.503 501.114 432.095 500.427 431.369C499.74 430.643 499.354 429.659 499.353 428.632V415.367C499.354 414.34 499.74 413.356 500.427 412.63C501.114 411.904 502.045 411.496 503.016 411.495H517.983C518.954 411.496 519.885 411.904 520.572 412.63C521.258 413.356 521.645 414.34 521.646 415.367V428.632C521.645 429.659 521.258 430.643 520.572 431.369C519.885 432.095 518.954 432.503 517.983 432.504V432.504Z" fill="white"/>
<path d="M517.983 398.512H503.016C502.045 398.511 501.114 398.103 500.427 397.377C499.74 396.651 499.354 395.667 499.353 394.64V381.684C499.354 380.657 499.74 379.673 500.427 378.947C501.114 378.221 502.045 377.813 503.016 377.812H517.983C518.954 377.813 519.885 378.221 520.572 378.947C521.258 379.673 521.645 380.657 521.646 381.684V394.64C521.645 395.667 521.258 396.651 520.572 397.377C519.885 398.103 518.954 398.511 517.983 398.512V398.512Z" fill="white"/>
<path d="M425.424 427.34H410.458C409.487 427.339 408.556 426.931 407.869 426.205C407.182 425.479 406.796 424.495 406.795 423.468V410.204C406.796 409.177 407.182 408.193 407.869 407.467C408.556 406.741 409.487 406.333 410.458 406.332H425.424C426.396 406.333 427.327 406.741 428.013 407.467C428.7 408.193 429.086 409.177 429.087 410.204V423.468C429.086 424.495 428.7 425.479 428.013 426.205C427.327 426.931 426.396 427.339 425.424 427.34Z" fill="white"/>
<path d="M425.424 393.349H410.458C409.487 393.347 408.556 392.939 407.869 392.213C407.182 391.487 406.796 390.503 406.795 389.476V376.521C406.796 375.494 407.182 374.51 407.869 373.784C408.556 373.058 409.487 372.65 410.458 372.648H425.424C426.396 372.65 427.327 373.058 428.013 373.784C428.7 374.51 429.086 375.494 429.087 376.521V389.476C429.086 390.503 428.7 391.487 428.013 392.213C427.327 392.939 426.396 393.347 425.424 393.349Z" fill="white"/>
<path d="M599.118 473.324H337.282C336.893 473.324 336.52 473.16 336.246 472.87C335.971 472.579 335.816 472.185 335.816 471.775C335.816 471.364 335.971 470.97 336.246 470.679C336.52 470.389 336.893 470.226 337.282 470.226H599.118C599.507 470.226 599.879 470.389 600.154 470.679C600.429 470.97 600.583 471.364 600.583 471.775C600.583 472.185 600.429 472.579 600.154 472.87C599.879 473.16 599.507 473.324 599.118 473.324Z" fill="#3F3D56"/>
<path d="M1198.53 1082.56H1.4652C1.07661 1082.56 0.703925 1082.4 0.429146 1082.11C0.154368 1081.82 0 1081.43 0 1081.01C0 1080.6 0.154368 1080.21 0.429146 1079.92C0.703925 1079.63 1.07661 1079.47 1.4652 1079.47H1198.53C1198.92 1079.47 1199.3 1079.63 1199.57 1079.92C1199.85 1080.21 1200 1080.6 1200 1081.01C1200 1081.43 1199.85 1081.82 1199.57 1082.11C1199.3 1082.4 1198.92 1082.56 1198.53 1082.56Z" fill="#3F3D56"/>
</g>
<defs>
<clipPath id="clip0">
<rect width="1200" height="1082.57" fill="white"/>
</clipPath>
</defs>
</svg>
