<svg width="372" height="336" viewBox="0 0 372 336" fill="none" xmlns="http://www.w3.org/2000/svg">
<path d="M372 181.968C369.003 220.004 357.436 263.541 328.655 300.379C302.395 333.99 266.759 345.409 221.375 327.758C197.376 318.425 177.252 303.025 157.938 286.357C118.393 252.229 82.9031 214.283 51.581 172.518C33.913 148.958 17.9875 124.218 7.62225 96.3668C3.02164 84.0021 -0.188626 71.3453 0.00861218 57.9786C0.346216 35.0919 12.8957 17.3649 34.3462 9.53487C63.0934 -0.958093 92.5678 -1.85825 122.521 2.34935C167.522 8.66985 211.244 19.937 253.437 36.7747C283.424 48.742 312.001 63.3408 335.4 86.333C360.423 110.922 371.949 138.64 372 181.968Z" fill="#F9F9F9"/>
</svg>
