<svg width="1000" height="267" viewBox="0 0 1000 267" fill="none" xmlns="http://www.w3.org/2000/svg">
<path d="M359.584 176.476C360.897 177.147 362.918 177.814 364.999 177.811C367.24 177.807 368.425 176.875 368.423 175.467C368.421 174.121 367.392 173.354 364.796 172.43C361.208 171.191 358.864 169.209 358.86 166.069C358.854 162.386 361.923 159.562 367.014 159.553C369.448 159.547 371.245 160.058 372.526 160.632L371.443 164.573C370.578 164.157 369.041 163.553 366.928 163.558C364.813 163.56 363.789 164.523 363.791 165.644C363.795 167.02 365.011 167.627 367.8 168.679C371.614 170.082 373.41 172.063 373.414 175.107C373.423 178.725 370.64 181.804 364.717 181.817C362.25 181.821 359.816 181.184 358.598 180.515L359.584 176.476Z" fill="black"/>
<path d="M392.237 173.441C392.247 179.173 388.184 181.806 383.987 181.815C379.409 181.824 375.882 178.82 375.871 173.76C375.862 168.698 379.187 165.458 384.215 165.449C389.018 165.441 392.229 168.734 392.237 173.441ZM380.9 173.622C380.907 176.312 382.029 178.328 384.11 178.324C385.999 178.32 387.215 176.428 387.209 173.61C387.206 171.271 386.304 168.905 384.094 168.909C381.755 168.913 380.895 171.317 380.9 173.622Z" fill="black"/>
<path d="M395.209 158.703L400.079 158.694L400.121 181.432L395.252 181.441L395.209 158.703Z" fill="black"/>
<path d="M418.811 176.371C418.813 178.42 418.88 180.086 418.946 181.399L414.721 181.408L414.493 179.198H414.396C413.79 180.158 412.319 181.764 409.5 181.769C406.33 181.776 403.989 179.794 403.978 174.957L403.964 165.767L408.863 165.758L408.877 174.18C408.881 176.453 409.62 177.83 411.32 177.828C412.665 177.824 413.431 176.895 413.75 176.125C413.877 175.835 413.908 175.451 413.908 175.067L413.891 165.748L418.792 165.74L418.811 176.371Z" fill="black"/>
<path d="M434.471 180.987C433.766 181.34 432.453 181.629 430.882 181.698L430.277 182.787C431.495 183.072 432.617 183.904 432.62 185.375C432.624 187.618 430.64 188.358 428.783 188.361C427.855 188.361 426.797 188.205 426.058 187.758L426.697 185.772C427.176 186.059 427.913 186.217 428.489 186.217C429.131 186.215 429.643 186.023 429.642 185.415C429.642 184.773 428.905 184.421 427.109 184.233L428.386 181.542C424.318 180.94 421.815 178.031 421.807 173.709C421.798 169.129 424.931 165.375 430.758 165.364C432.04 165.362 433.448 165.584 434.475 165.966L433.713 169.586C433.136 169.33 432.269 169.109 430.988 169.111C428.426 169.115 426.765 170.943 426.8 173.506C426.807 176.388 428.731 177.89 431.102 177.886C432.254 177.884 433.151 177.69 433.886 177.369L434.471 180.987Z" fill="black"/>
<path d="M452.252 173.331C452.263 179.064 448.202 181.698 444.005 181.707C439.427 181.714 435.899 178.71 435.889 173.65C435.88 168.588 439.205 165.35 444.233 165.34C449.036 165.331 452.245 168.624 452.252 173.331ZM439.49 163.49C439.389 160.801 440.442 159.296 442.108 159.292C442.908 159.29 443.55 159.608 444.192 159.927C444.705 160.248 445.154 160.566 445.538 160.564C446.049 160.564 446.275 160.277 446.368 159.122L448.609 159.12C448.71 162.065 447.687 163.252 445.99 163.256C445.093 163.258 444.453 162.905 443.78 162.555C443.204 162.234 442.947 162.042 442.562 162.044C442.113 162.044 441.828 162.526 441.796 163.486L439.49 163.49ZM440.918 173.513C440.924 176.202 442.047 178.218 444.128 178.214C446.017 178.212 447.233 176.32 447.227 173.503C447.223 171.165 446.322 168.798 444.112 168.8C441.772 168.803 440.913 171.208 440.918 173.513Z" fill="black"/>
<path d="M459.105 175.049C459.265 177.065 461.254 178.023 463.527 178.019C465.193 178.015 466.538 177.789 467.853 177.371L468.497 180.67C466.897 181.312 464.944 181.637 462.832 181.639C457.514 181.65 454.468 178.58 454.457 173.681C454.451 169.71 456.909 165.316 462.352 165.307C467.412 165.296 469.343 169.234 469.35 173.108C469.351 173.94 469.254 174.677 469.194 175.029L459.105 175.049ZM464.829 171.708C464.827 170.524 464.312 168.538 462.07 168.542C460.021 168.545 459.191 170.403 459.065 171.718L464.829 171.708Z" fill="black"/>
<path d="M472.227 177.042C473.127 177.587 474.984 178.224 476.426 178.222C477.899 178.218 478.507 177.705 478.505 176.902C478.505 176.103 478.022 175.718 476.198 175.114C472.96 174.031 471.708 172.273 471.738 170.416C471.731 167.501 474.225 165.287 478.1 165.278C479.927 165.276 481.56 165.688 482.523 166.167L481.664 169.532C480.959 169.15 479.611 168.639 478.268 168.641C477.081 168.643 476.412 169.126 476.412 169.926C476.414 170.662 477.023 171.045 478.945 171.716C481.926 172.733 483.177 174.236 483.213 176.543C483.217 179.456 480.917 181.606 476.433 181.615C474.383 181.617 472.557 181.172 471.371 180.535L472.227 177.042Z" fill="black"/>
<path d="M496.363 174.982C496.523 176.997 498.512 177.956 500.785 177.952C502.451 177.948 503.796 177.722 505.111 177.304L505.755 180.603C504.154 181.245 502.202 181.57 500.089 181.572C494.772 181.582 491.726 178.513 491.715 173.614C491.708 169.643 494.166 165.249 499.61 165.24C504.669 165.229 506.6 169.166 506.607 173.041C506.609 173.873 506.512 174.61 506.451 174.962L496.363 174.982ZM502.088 171.641C502.086 170.456 501.57 168.471 499.329 168.474C497.28 168.478 496.45 170.338 496.323 171.651L502.088 171.641Z" fill="black"/>
<path d="M509.507 170.57C509.504 168.616 509.438 166.95 509.372 165.573L513.472 165.567L513.697 167.679H513.795C514.464 166.686 515.84 165.21 518.529 165.205C520.547 165.201 522.149 166.225 522.827 167.854H522.891C523.464 167.053 524.168 166.413 524.904 165.961C525.767 165.446 526.726 165.19 527.878 165.188C530.889 165.181 533.166 167.29 533.175 171.966L533.192 181.19L528.453 181.199L528.439 172.68C528.435 170.406 527.696 169.095 526.13 169.097C525.009 169.099 524.206 169.87 523.89 170.799C523.761 171.151 523.7 171.664 523.7 172.048L523.717 181.207L518.976 181.215L518.959 172.44C518.957 170.455 518.25 169.112 516.713 169.114C515.463 169.116 514.729 170.079 514.441 170.878C514.281 171.265 514.251 171.712 514.251 172.096L514.268 181.224L509.528 181.233L509.507 170.57Z" fill="black"/>
<path d="M543.5 170.669C543.497 168.362 543.43 166.857 543.365 165.512L547.559 165.506L547.723 168.387L547.852 168.385C548.648 166.112 550.566 165.147 552.073 165.145C552.521 165.143 552.744 165.143 553.097 165.207L553.106 169.787C552.753 169.723 552.338 169.66 551.793 169.66C549.998 169.664 548.785 170.627 548.466 172.134C548.403 172.453 548.373 172.837 548.373 173.221L548.387 181.165L543.518 181.173L543.5 170.669Z" fill="black"/>
<path d="M570.88 173.118C570.89 178.851 566.827 181.483 562.631 181.492C558.052 181.501 554.525 178.497 554.514 173.437C554.506 168.375 557.83 165.135 562.859 165.126C567.661 165.116 570.871 168.411 570.88 173.118ZM559.542 173.298C559.549 175.987 560.672 178.003 562.753 178.001C564.642 177.997 565.858 176.105 565.852 173.287C565.848 170.948 564.946 168.582 562.736 168.586C560.398 168.591 559.538 170.993 559.542 173.298Z" fill="black"/>
<path d="M573.767 181.118C573.829 180.092 573.887 178.202 573.885 176.442L573.852 158.38L578.721 158.372L578.738 167.307H578.802C579.729 165.96 581.361 165.092 583.537 165.089C587.284 165.082 590.044 168.183 590.021 172.987C590.032 178.622 586.449 181.447 582.863 181.453C581.037 181.457 579.275 180.788 578.149 178.933H578.086L577.898 181.111L573.767 181.118ZM578.751 174.448C578.753 174.769 578.785 175.058 578.848 175.313C579.171 176.626 580.294 177.616 581.702 177.611C583.785 177.609 585.062 176.007 585.057 173.189C585.053 170.753 583.961 168.834 581.686 168.836C580.373 168.84 579.159 169.837 578.84 171.245C578.779 171.534 578.747 171.822 578.747 172.142L578.751 174.448Z" fill="black"/>
<path d="M608.587 173.048C608.598 178.781 604.535 181.416 600.338 181.422C595.76 181.431 592.232 178.427 592.222 173.367C592.213 168.306 595.538 165.067 600.566 165.057C605.369 165.048 608.58 168.341 608.587 173.048ZM597.251 173.229C597.257 175.919 598.38 177.934 600.461 177.93C602.35 177.928 603.566 176.037 603.56 173.219C603.556 170.881 602.655 168.512 600.445 168.516C598.105 168.52 597.246 170.924 597.251 173.229Z" fill="black"/>
<path d="M617.012 160.896L617.021 165.379L620.51 165.372L620.517 168.959L617.028 168.965L617.036 174.635C617.04 176.523 617.49 177.388 618.964 177.385C619.571 177.383 620.053 177.319 620.405 177.254L620.444 180.935C619.802 181.195 618.649 181.357 617.274 181.359C615.703 181.361 614.39 180.819 613.62 180.019C612.721 179.095 612.272 177.587 612.267 175.38L612.256 168.973L610.175 168.977L610.168 165.391L612.249 165.387L612.243 161.993L617.012 160.896Z" fill="black"/>
<path d="M628.341 161.004C628.343 162.348 627.322 163.439 625.72 163.444C624.183 163.446 623.158 162.359 623.187 161.014C623.154 159.604 624.176 158.545 625.746 158.542C627.313 158.538 628.308 159.593 628.341 161.004ZM623.349 181.03L623.321 165.369L628.191 165.361L628.218 181.021L623.349 181.03Z" fill="black"/>
<path d="M630.867 178.228L635.786 172.039C636.681 170.98 637.386 170.211 638.281 169.249V169.185L631.396 169.198L631.389 165.354L644.197 165.331L644.201 168.246L639.505 174.178C638.644 175.205 637.844 176.198 636.949 177.065V177.129L644.476 177.116L644.483 180.992L630.872 181.015L630.867 178.228Z" fill="black"/>
<path d="M656.035 180.97L655.745 179.401H655.648C654.627 180.651 653.024 181.327 651.167 181.33C647.997 181.337 646.103 179.034 646.099 176.535C646.092 172.467 649.74 170.508 655.278 170.529V170.305C655.276 169.472 654.826 168.29 652.424 168.293C650.822 168.295 649.127 168.844 648.104 169.484L647.2 166.348C648.289 165.738 650.432 164.966 653.284 164.961C658.504 164.952 660.176 168.023 660.182 171.705L660.193 177.151C660.195 178.656 660.26 180.095 660.423 180.961L656.035 180.97ZM655.446 173.572C652.884 173.544 650.9 174.156 650.904 176.048C650.906 177.295 651.737 177.903 652.827 177.901C654.045 177.899 655.037 177.096 655.356 176.102C655.42 175.845 655.449 175.557 655.449 175.269L655.446 173.572Z" fill="black"/>
<path d="M675.789 180.55C675.084 180.903 673.771 181.194 672.201 181.261L671.595 182.35C672.813 182.635 673.936 183.467 673.939 184.938C673.943 187.181 671.959 187.921 670.102 187.924C669.173 187.924 668.116 187.768 667.376 187.321L668.016 185.335C668.494 185.622 669.232 185.78 669.807 185.78C670.449 185.778 670.962 185.586 670.96 184.978C670.96 184.336 670.224 183.986 668.427 183.796L669.705 181.105C665.637 180.503 663.134 177.594 663.125 173.272C663.116 168.691 666.249 164.938 672.077 164.927C673.358 164.925 674.766 165.147 675.794 165.529L675.032 169.149C674.455 168.893 673.588 168.672 672.307 168.674C669.744 168.678 668.083 170.506 668.119 173.069C668.125 175.951 670.05 177.453 672.42 177.449C673.572 177.447 674.469 177.253 675.205 176.932L675.789 180.55Z" fill="black"/>
<path d="M687.499 180.913L687.21 179.344H687.113C686.091 180.594 684.488 181.27 682.631 181.274C679.461 181.28 677.568 178.977 677.563 176.478C677.556 172.41 681.204 170.451 686.742 170.472V170.248C686.741 169.415 686.291 168.233 683.889 168.237C682.286 168.239 680.592 168.787 679.568 169.43L678.664 166.291C679.753 165.681 681.896 164.911 684.748 164.904C689.968 164.895 691.64 167.967 691.647 171.648L691.657 177.094C691.659 178.599 691.724 180.038 691.887 180.904L687.499 180.913ZM680.229 163.056C680.128 160.366 681.215 158.859 682.849 158.857C683.648 158.855 684.289 159.171 684.932 159.492C685.442 159.812 685.892 160.13 686.276 160.13C686.821 160.128 687.044 159.84 687.106 158.688L689.347 158.684C689.448 161.631 688.425 162.817 686.728 162.819C685.833 162.821 685.191 162.471 684.518 162.119C683.942 161.799 683.717 161.608 683.3 161.608C682.852 161.61 682.566 162.092 682.536 163.052L680.229 163.056ZM686.91 173.515C684.347 173.487 682.363 174.099 682.367 175.991C682.369 177.238 683.2 177.846 684.29 177.844C685.508 177.842 686.5 177.039 686.819 176.046C686.883 175.788 686.913 175.501 686.913 175.212L686.91 173.515Z" fill="black"/>
<path d="M710.951 172.865C710.961 178.597 706.9 181.23 702.703 181.239C698.125 181.247 694.597 178.244 694.587 173.184C694.578 168.122 697.903 164.882 702.931 164.871C707.733 164.862 710.942 168.157 710.951 172.865ZM699.615 173.043C699.622 175.733 700.744 177.749 702.825 177.747C704.714 177.743 705.93 175.851 705.924 173.033C705.92 170.694 705.019 168.328 702.809 168.332C700.47 168.336 699.611 170.738 699.615 173.043Z" fill="black"/>
<path d="M735.572 158.086L735.606 176.148C735.607 177.908 735.675 179.766 735.743 180.823L731.418 180.832L731.19 178.527H731.126C730.136 180.29 728.247 181.191 726.231 181.195C722.516 181.202 719.533 178.036 719.522 173.168C719.482 167.883 722.773 164.835 726.52 164.829C728.443 164.827 729.95 165.496 730.655 166.585H730.721L730.704 158.097L735.572 158.086ZM730.729 171.804C730.729 171.547 730.698 171.194 730.662 170.939C730.373 169.626 729.313 168.539 727.808 168.541C725.598 168.545 724.45 170.534 724.454 172.999C724.46 175.657 725.775 177.32 727.793 177.316C729.203 177.314 730.322 176.351 730.606 174.975C730.703 174.623 730.733 174.271 730.733 173.855L730.729 171.804Z" fill="black"/>
<path d="M743.247 174.534C743.407 176.552 745.396 177.508 747.669 177.505C749.335 177.503 750.679 177.277 751.995 176.857L752.639 180.156C751.038 180.798 749.086 181.123 746.973 181.126C741.656 181.135 738.61 178.066 738.599 173.167C738.593 169.196 741.05 164.803 746.494 164.792C751.554 164.784 753.485 168.719 753.491 172.594C753.493 173.425 753.396 174.162 753.336 174.514L743.247 174.534ZM748.971 171.192C748.969 170.008 748.454 168.022 746.212 168.026C744.163 168.03 743.333 169.89 743.206 171.203L748.971 171.192Z" fill="black"/>
<path d="M762.857 170.368C762.853 168.318 762.786 166.557 762.721 165.116L766.946 165.109L767.174 167.285H767.238C768.388 165.617 770.18 164.75 772.453 164.745C775.879 164.739 778.961 167.711 778.969 172.707C778.98 178.406 775.366 181.104 771.875 181.11C769.986 181.114 768.512 180.348 767.805 179.324H767.741L767.754 187.107L762.884 187.116L762.857 170.368ZM767.732 174.042C767.734 174.427 767.765 174.779 767.829 175.066C768.152 176.379 769.275 177.371 770.683 177.367C772.797 177.365 774.043 175.6 774.036 172.943C774.033 170.446 772.907 168.557 770.731 168.561C769.352 168.564 768.138 169.591 767.822 171.033C767.759 171.288 767.727 171.61 767.727 171.896L767.732 174.042Z" fill="black"/>
<path d="M781.997 170.239C781.993 167.932 781.927 166.427 781.862 165.082L786.055 165.074L786.22 167.955H786.348C787.144 165.68 789.063 164.717 790.57 164.713C791.018 164.713 791.241 164.713 791.594 164.775L791.602 169.355C791.25 169.293 790.834 169.228 790.289 169.23C788.495 169.232 787.282 170.195 786.963 171.702C786.899 172.021 786.869 172.407 786.869 172.791L786.884 180.735L782.014 180.743L781.997 170.239Z" fill="black"/>
<path d="M809.378 172.685C809.388 178.418 805.327 181.053 801.131 181.059C796.552 181.068 793.025 178.064 793.014 173.004C793.005 167.943 796.33 164.702 801.358 164.694C806.161 164.685 809.369 167.978 809.378 172.685ZM798.042 172.867C798.049 175.556 799.172 177.572 801.253 177.568C803.141 177.566 804.357 175.675 804.352 172.856C804.348 170.518 803.446 168.149 801.236 168.153C798.897 168.157 798.038 170.562 798.042 172.867Z" fill="black"/>
<path d="M824.246 180.28C823.38 180.666 821.746 180.991 819.888 180.993C814.828 181.003 811.59 177.932 811.58 173.001C811.571 168.421 814.704 164.669 820.531 164.659C821.813 164.657 823.221 164.876 824.248 165.259L823.486 168.88C822.91 168.625 822.042 168.402 820.761 168.404C818.199 168.41 816.538 170.238 816.573 172.8C816.58 175.682 818.504 177.183 820.874 177.179C822.027 177.177 822.924 176.984 823.659 176.695L824.246 180.28Z" fill="black"/>
<path d="M830.313 174.376C830.473 176.394 832.462 177.35 834.735 177.346C836.401 177.345 837.745 177.119 839.061 176.701L839.705 179.998C838.104 180.642 836.152 180.965 834.039 180.968C828.722 180.979 825.676 177.908 825.665 173.009C825.659 169.038 828.116 164.645 833.56 164.634C838.62 164.626 840.551 168.561 840.557 172.436C840.559 173.267 840.462 174.006 840.402 174.359L830.313 174.376ZM836.037 171.035C836.035 169.851 835.52 167.867 833.278 167.871C831.229 167.873 830.399 169.733 830.272 171.046L836.037 171.035Z" fill="black"/>
<path d="M843.436 176.371C844.335 176.913 846.193 177.553 847.634 177.548C849.108 177.546 849.715 177.033 849.713 176.231C849.713 175.432 849.23 175.047 847.407 174.443C844.168 173.358 842.917 171.6 842.946 169.742C842.94 166.827 845.433 164.613 849.309 164.606C851.135 164.603 852.768 165.016 853.731 165.495L852.872 168.86C852.167 168.478 850.82 167.967 849.476 167.969C848.29 167.971 847.621 168.452 847.621 169.252C847.623 169.988 848.231 170.373 850.154 171.042C853.134 172.062 854.386 173.564 854.421 175.871C854.425 178.783 852.125 180.935 847.641 180.941C845.592 180.945 843.765 180.5 842.579 179.863L843.436 176.371Z" fill="black"/>
<path d="M857.327 176.346C858.226 176.888 860.083 177.528 861.525 177.526C862.999 177.522 863.606 177.009 863.604 176.207C863.604 175.407 863.121 175.023 861.298 174.419C858.059 173.334 856.808 171.578 856.837 169.721C856.831 166.805 859.324 164.589 863.2 164.583C865.026 164.579 866.661 164.993 867.622 165.472L866.763 168.837C866.058 168.455 864.711 167.944 863.367 167.945C862.181 167.947 861.512 168.431 861.512 169.231C861.514 169.967 862.122 170.349 864.045 171.018C867.025 172.038 868.277 173.541 868.312 175.848C868.316 178.76 866.016 180.911 861.532 180.92C859.483 180.922 857.656 180.477 856.47 179.84L857.327 176.346Z" fill="black"/>
<path d="M886.714 172.546C886.725 178.279 882.662 180.911 878.465 180.92C873.887 180.929 870.359 177.925 870.349 172.865C870.34 167.803 873.665 164.563 878.693 164.554C883.495 164.546 886.706 167.839 886.714 172.546ZM875.377 172.728C875.382 175.417 876.506 177.433 878.587 177.429C880.476 177.425 881.692 175.533 881.686 172.715C881.682 170.377 880.781 168.01 878.571 168.014C876.232 168.019 875.373 170.423 875.377 172.728Z" fill="black"/>
<path d="M889.688 176.286C890.586 176.831 892.444 177.468 893.886 177.466C895.36 177.462 895.967 176.949 895.965 176.147C895.965 175.348 895.482 174.963 893.658 174.359C890.42 173.276 889.169 171.518 889.198 169.661C889.192 166.746 891.685 164.532 895.561 164.523C897.387 164.521 899.02 164.933 899.983 165.414L899.124 168.777C898.418 168.395 897.072 167.884 895.728 167.886C894.542 167.888 893.873 168.371 893.873 169.171C893.875 169.907 894.483 170.29 896.406 170.961C899.386 171.978 900.638 173.481 900.673 175.788C900.677 178.7 898.377 180.851 893.893 180.86C891.844 180.864 890.017 180.417 888.831 179.78L889.688 176.286Z" fill="black"/>
<path d="M414.199 131.02C413.614 131.678 412.766 132.006 411.649 132.008L378.963 132.066C371.038 132.081 364.326 128.919 358.827 122.578C354.958 117.762 353.02 112.303 353.008 106.207L353.006 104.682C352.992 96.758 356.155 90.0497 362.494 84.5515C367.313 80.6846 372.77 78.7429 378.866 78.7323L411.552 78.6737C412.567 78.6718 413.392 78.965 414.03 79.5455C414.665 80.13 414.984 80.9787 414.986 82.0956L414.993 85.9818C414.995 86.9469 414.704 87.763 414.121 88.4224C413.539 89.0856 412.688 89.4143 411.571 89.4163L385.588 89.4624C379.239 89.4749 375.429 89.9392 374.162 90.86C372.537 91.3223 370.509 92.7488 368.075 95.1489C365.339 98.6151 363.973 102.055 363.98 105.465C363.989 109.999 366.129 114.117 370.401 117.828C373.198 120.165 377.39 121.328 382.98 121.317L411.628 121.264C412.593 121.262 413.407 121.554 414.068 122.132C414.729 122.713 415.06 123.555 415.062 124.665L415.071 128.597C415.071 129.557 414.779 130.365 414.199 131.02Z" fill="black"/>
<path d="M459.446 78.5877C468.244 78.5733 475.472 82.3931 481.131 90.054C483.989 94.5689 485.42 99.2913 485.429 104.218L485.433 106.2C485.447 114.428 481.88 121.368 474.727 127.019C470.057 130.278 465.009 131.911 459.573 131.922L444.641 131.95C436.717 131.964 430.004 128.801 424.505 122.461C420.636 117.643 418.699 112.186 418.686 106.09L418.684 104.565C418.67 96.6412 421.836 89.931 428.183 84.4348C433.008 80.5678 438.471 78.6261 444.574 78.6156L459.446 78.5877ZM429.658 105.347C429.667 109.881 431.808 113.999 436.079 117.708C438.876 120.047 443.068 121.208 448.658 121.197L452.696 121.191C459.197 121.178 463.084 120.688 464.351 119.719C467.853 118.237 470.617 115.662 472.643 111.991C473.755 109.698 474.311 107.404 474.306 105.111C474.297 100.427 472.028 96.2308 467.502 92.5224C464.805 90.3904 460.663 89.3264 455.076 89.337L451.265 89.3437C444.916 89.3562 441.106 89.8205 439.839 90.7413C438.214 91.2017 436.186 92.6301 433.752 95.0283C431.018 98.4973 429.653 101.938 429.658 105.347Z" fill="black"/>
<path d="M489.841 79.4846C490.422 78.8493 491.274 78.5302 492.391 78.5282L497.267 78.5196C499.503 78.5157 501.51 79.425 503.291 81.2514C513.521 90.9356 521.305 98.286 526.643 103.305C531.986 108.323 534.964 111.112 535.574 111.671C536.591 112.276 537.429 112.606 538.09 112.657C539.615 112.653 540.372 110.671 540.365 106.709L540.321 81.8713C540.319 80.9063 540.595 80.094 541.155 79.4308C541.71 78.7724 542.547 78.4388 543.666 78.4369L547.552 78.4302C548.567 78.4283 549.393 78.7195 550.03 79.3001C550.666 79.8845 550.985 80.7352 550.987 81.8521L551.071 128.331C551.071 129.296 550.78 130.108 550.2 130.768C549.615 131.432 548.766 131.762 547.649 131.765L543.001 131.774C540.411 131.778 538.017 130.486 535.83 127.9L504.463 98.3946C503.446 97.8352 502.658 97.5584 502.101 97.5612C500.577 97.5632 499.819 99.5202 499.826 103.431L499.872 128.424C499.872 129.389 499.581 130.201 499 130.862C498.416 131.525 497.565 131.855 496.448 131.855L492.486 131.864C491.471 131.866 490.644 131.575 490.008 130.992C489.371 130.412 489.054 129.559 489.052 128.442L488.967 81.9636C488.967 80.9476 489.256 80.1229 489.841 79.4846Z" fill="black"/>
<path d="M555.746 121.953C556.33 121.32 557.179 121.002 558.298 120.999L593.422 120.935C598.653 120.927 601.65 120.462 602.411 119.543C604.591 118.107 605.681 116.317 605.678 114.172C605.671 111.516 604.07 109.501 600.865 108.127C600.205 107.72 597.716 107.522 593.399 107.527L569.779 107.572C562.314 107.584 557.429 104.114 555.132 97.1568C554.824 95.7871 554.67 94.4174 554.666 93.0448V92.8929C554.656 86.5941 557.543 82.0936 563.329 79.3897C565.002 78.7294 566.932 78.393 569.116 78.3891L613.537 78.3093C614.502 78.3074 615.302 78.5987 615.939 79.1812C616.574 79.7637 616.893 80.6143 616.895 81.7313L616.902 85.6175C616.904 86.5825 616.628 87.3967 616.069 88.058C615.511 88.7183 614.673 89.05 613.557 89.0519L575.232 89.1211C570.61 89.1297 568.042 89.6171 567.539 90.5821C566.829 91.1435 566.475 91.9567 566.477 93.0227C566.48 94.9537 567.903 96.1447 570.749 96.5984C571.716 96.7483 573.419 96.8204 575.857 96.8156L599.629 96.7733C606.994 96.7608 612.306 100.13 615.57 106.878C616.488 109.01 616.948 111.397 616.955 114.038V114.266C616.965 120.921 614.133 126.006 608.45 129.518C605.91 130.947 603.095 131.663 599.996 131.669L558.32 131.743C557.303 131.745 556.475 131.459 555.84 130.88C555.203 130.3 554.885 129.456 554.883 128.345L554.875 124.413C554.871 123.404 555.162 122.585 555.746 121.953Z" fill="black"/>
<path d="M621.5 79.2461C622.08 78.6107 622.933 78.2916 624.05 78.2897L628.012 78.2829C629.027 78.281 629.852 78.5723 630.49 79.1548C631.125 79.7392 631.446 80.5918 631.448 81.7106L631.48 99.0365C631.49 105.399 631.953 109.213 632.869 110.482C634.401 114.197 637.097 117.068 640.964 119.096C642.997 120.263 646.605 120.84 651.785 120.829C657.473 120.819 661.41 120.025 663.59 118.442C667.092 116.453 669.602 113.318 671.117 109.042C671.723 107.817 672.023 103.976 672.01 97.5121L671.983 81.6376C671.981 80.6706 672.257 79.8584 672.816 79.1932C673.371 78.5329 674.209 78.1993 675.328 78.1964L679.214 78.1897C680.229 78.1878 681.055 78.479 681.692 79.0615C682.327 79.644 682.646 80.4947 682.648 81.6116L682.692 105.842C682.707 114.07 679.189 121.011 672.138 126.661C667.472 129.92 662.396 131.553 656.911 131.564L646.625 131.583C638.7 131.598 631.988 128.434 626.489 122.095C622.62 117.277 620.682 111.82 620.67 105.724L620.629 81.7241C620.626 80.7091 620.915 79.8843 621.5 79.2461Z" fill="black"/>
<path d="M687.178 79.1279C687.759 78.4906 688.611 78.1734 689.728 78.1715L693.614 78.1628C695.951 78.159 697.123 79.5557 697.127 82.3528L697.156 98.6127C697.169 105.127 697.58 108.943 698.395 110.06C699.926 113.874 702.676 116.848 706.643 118.976C708.574 120.146 712.331 120.72 717.92 120.711L744.966 120.66C745.931 120.66 746.745 120.949 747.407 121.528C748.067 122.109 748.399 122.951 748.401 124.061L748.409 127.993C748.409 128.953 748.118 129.762 747.538 130.416C746.953 131.075 746.104 131.403 744.987 131.405L712.303 131.463C704.379 131.478 697.667 128.316 692.168 121.977C688.299 117.158 686.361 111.702 686.348 105.606L686.306 81.605C686.304 80.5909 686.594 79.7633 687.178 79.1279Z" fill="black"/>
<path d="M726.419 79.0571C727 78.4218 727.852 78.1027 728.969 78.1007L784.131 78.0017C785.146 77.9998 785.972 78.291 786.609 78.8735C787.245 79.456 787.564 80.3067 787.566 81.4236L787.572 85.3098C787.574 86.2749 787.283 87.0891 786.701 87.7504C786.118 88.4107 785.267 88.7423 784.151 88.7443L768.759 88.7721C765.153 88.7789 763.123 89.469 762.669 90.8407C762.414 91.2482 762.239 91.8605 762.138 92.6708C762.039 93.483 761.99 94.476 761.993 95.6429L762.052 127.949C762.052 128.914 761.761 129.727 761.18 130.387C760.596 131.05 759.747 131.381 758.63 131.384L754.668 131.39C753.651 131.392 752.824 131.117 752.188 130.557C751.551 130 751.234 129.138 751.232 127.97L751.172 95.6631C751.166 92.0576 750.501 90.0275 749.182 89.5709C748.366 89.0643 746.767 88.8135 744.379 88.8173L728.989 88.8452C728.024 88.8471 727.212 88.5578 726.549 87.9734C725.888 87.3928 725.557 86.5421 725.555 85.4233L725.548 81.5371C725.545 80.5201 725.835 79.6944 726.419 79.0571Z" fill="black"/>
<path d="M827.989 77.9206C836.787 77.9062 844.014 81.726 849.674 89.3869C852.532 93.9017 853.963 98.6242 853.971 103.55L853.975 105.532C853.99 113.76 850.423 120.701 843.269 126.351C838.6 129.611 833.551 131.244 828.116 131.255L813.183 131.282C805.259 131.297 798.547 128.133 793.048 121.794C789.179 116.976 787.241 111.519 787.229 105.423L787.227 103.898C787.212 95.9741 790.379 89.2639 796.725 83.7676C801.551 79.9007 807.013 77.959 813.116 77.9484L827.989 77.9206ZM798.201 104.68C798.209 109.214 800.349 113.332 804.622 117.041C807.419 119.38 811.611 120.541 817.2 120.53L821.238 120.524C827.74 120.511 831.626 120.021 832.894 119.052C836.396 117.57 839.159 114.995 841.185 111.324C842.297 109.031 842.853 106.737 842.848 104.444C842.84 99.7603 840.57 95.5637 836.045 91.8553C833.347 89.7233 829.206 88.6593 823.618 88.6698L819.808 88.6766C813.458 88.6891 809.649 89.1533 808.382 90.0742C806.757 90.5346 804.728 91.963 802.295 94.3612C799.56 97.8302 798.194 101.27 798.201 104.68Z" fill="black"/>
<path d="M858.382 78.8182C858.962 78.1828 859.815 77.8637 860.932 77.8618L905.049 77.782C911.702 77.7695 916.306 80.9608 918.856 87.3567C919.316 88.8812 919.548 90.4556 919.55 92.0811L919.552 92.6155C919.562 99.0662 916.396 103.59 910.051 106.195C909.34 106.448 908.059 106.666 906.205 106.847C904.352 107.031 901.874 107.124 898.777 107.128C896.694 107.436 895.655 108.099 895.657 109.114V109.266C895.659 110.587 897.134 112.286 900.085 114.363L916.566 128.124C916.974 128.582 917.179 129.141 917.179 129.8C917.18 130.665 916.243 131.099 914.365 131.101L904.993 131.118C902.707 131.122 900.292 129.934 897.749 127.549C883.298 115.641 875.897 109.482 875.543 109.075C874.065 107.76 873.326 105.879 873.322 103.442L873.315 100.242C873.312 97.6013 874.477 96.2777 876.813 96.2729L898.375 96.2345C903.15 96.2258 905.841 95.7894 906.451 94.9234C907.313 94.313 907.741 93.4498 907.739 92.331C907.737 90.7056 906.795 89.5915 904.915 88.9831C904.305 88.6812 902.323 88.5294 898.971 88.5351L875.122 88.5793C871.515 88.5861 869.487 89.2762 869.032 90.6479C868.627 91.5111 868.425 92.3742 868.427 93.2384C868.391 101.927 868.381 109.14 868.391 114.878C868.402 120.62 868.407 125.012 868.414 128.06C868.416 128.873 868.11 129.597 867.502 130.233C866.894 130.87 866.058 131.189 864.99 131.189L861.028 131.198C860.013 131.2 859.186 130.908 858.55 130.326C857.913 129.745 857.596 128.893 857.594 127.776L857.509 81.2972C857.508 80.2802 857.797 79.4555 858.382 78.8182Z" fill="black"/>
<path d="M924.061 78.7007C924.642 78.0634 925.494 77.7462 926.611 77.7443L930.497 77.7356C931.462 77.7337 932.262 78.0269 932.9 78.6074C933.535 79.1919 933.854 80.0406 933.856 81.1575L933.941 127.636C933.941 128.601 933.664 129.415 933.107 130.077C932.548 130.74 931.711 131.069 930.596 131.071L926.709 131.079C925.694 131.079 924.867 130.79 924.231 130.207C923.594 129.625 923.277 128.772 923.275 127.655L923.19 81.1768C923.187 80.1608 923.477 79.336 924.061 78.7007Z" fill="black"/>
<path d="M971.791 77.6611C974.28 77.6573 976.062 79.0751 977.134 81.9164C984.473 96.6355 990.031 107.813 993.803 115.449C997.575 123.088 999.589 127.239 999.844 127.897C999.945 128.203 999.998 128.457 1000 128.659V129.041C999.797 130.31 998.936 130.947 997.412 130.949L991.774 130.96C989.336 130.963 987.427 129.112 986.049 125.408C981.766 116.779 978.402 110.03 975.952 105.156C973.506 100.284 971.927 97.1911 971.212 95.8704C970.348 94.8044 969.635 94.2748 969.078 94.2748L968.391 94.2767C967.02 94.2786 965.322 96.7191 963.298 101.599L949.941 128.673C948.824 130.249 947.431 131.039 945.755 131.041L940.193 131.052C938.975 131.054 938.135 130.598 937.675 129.684L937.599 129.152V128.771C937.597 128.009 938.582 125.748 940.558 121.987C946.378 110.04 951.005 100.596 954.448 93.6548C957.888 86.7148 960.166 82.1529 961.281 79.9661C962.243 78.4397 963.69 77.6756 965.619 77.6717L971.791 77.6611Z" fill="black"/>
<path d="M295.502 144.373C293.121 174.55 283.932 209.092 261.07 238.32C240.211 264.987 211.903 274.046 175.852 260.043C156.788 252.637 140.802 240.419 125.46 227.195C94.0464 200.117 65.8549 170.011 40.9738 136.875C26.9391 118.183 14.2886 98.5545 6.05481 76.4571C2.40027 66.647 -0.149837 56.6052 0.00684116 46.0001C0.27502 27.8418 10.2438 13.7773 27.2832 7.56494C50.1188 -0.760148 73.5321 -1.47433 97.326 1.86397C133.073 6.87863 167.803 15.8179 201.32 29.1769C225.141 38.6718 247.841 50.2544 266.428 68.4964C286.306 88.0052 295.461 109.997 295.502 144.373Z" fill="#0085CA"/>
<path d="M9.35462 70.8047C10.2899 69.7829 11.6529 69.2696 13.4494 69.2658L102.052 69.1052C103.684 69.1033 105.012 69.5714 106.031 70.5067C107.053 71.4439 107.565 72.8097 107.57 74.6015L107.58 80.8436C107.584 82.395 107.116 83.7042 106.181 84.7634C105.244 85.8256 103.878 86.359 102.084 86.361L77.3644 86.4052C71.5702 86.4158 68.3088 87.524 67.5802 89.7281C67.1707 90.3827 66.8882 91.3622 66.7276 92.6685C66.5652 93.9747 66.4893 95.5646 66.4912 97.4409L66.5863 149.329C66.5883 150.881 66.1201 152.185 65.1849 153.247C64.2477 154.311 62.8837 154.843 61.0901 154.845L54.7259 154.857C53.0918 154.859 51.7663 154.414 50.7474 153.517C49.7237 152.622 49.2133 151.24 49.2085 149.361L49.1134 97.4726C49.1028 91.6803 48.0368 88.4189 45.9154 87.6865C44.6062 86.8743 42.0379 86.4705 38.2026 86.4773L13.483 86.5215C11.9316 86.5253 10.6273 86.0591 9.56512 85.122C8.50106 84.1848 7.9695 82.8208 7.9647 81.0253L7.95413 74.7831C7.95028 73.1539 8.41551 71.8284 9.35462 70.8047Z" fill="white"/>
<path d="M97.7122 70.6484C98.6475 69.6266 100.011 69.1143 101.807 69.1095L190.897 68.949C192.447 68.9471 193.732 69.4152 194.754 70.3504C195.775 71.2876 196.289 72.6535 196.293 74.4452L196.324 92.3132C196.343 102.348 191.902 109.498 183.005 113.755C179.982 115.146 176.347 115.847 172.098 115.853L134.23 115.923C126.139 115.937 121.322 116.644 119.773 118.04C115.773 120.594 113.781 124.493 113.789 129.745C113.795 133.027 114.696 135.138 116.496 136.079C118.295 137.018 120.992 137.486 124.587 137.479L190.768 137.359C192.322 137.357 193.61 137.821 194.632 138.75C195.655 139.683 196.169 141.037 196.172 142.819L196.183 149.137C196.185 150.678 195.738 151.977 194.843 153.029C193.946 154.085 192.603 154.612 190.809 154.614L101.964 154.775C100.33 154.779 99.0041 154.313 97.9823 153.375C96.9606 152.44 96.4482 151.074 96.4454 149.279L96.4031 126.393C96.3819 114.81 101.752 106.315 112.513 100.909C116.015 99.4358 119.811 98.6947 123.89 98.689L162.192 98.6198C169.78 98.6053 174.141 97.944 175.283 96.6358C177.075 95.3295 177.968 93.6551 177.966 91.6144L177.964 91.3693C177.96 89.0855 176.981 87.661 175.022 87.0929C173.061 86.5248 170.737 86.2422 168.043 86.2489L101.839 86.3672C100.287 86.371 98.983 85.9048 97.9208 84.9676C96.8568 84.0324 96.3252 82.6665 96.3204 80.8709L96.3098 74.6288C96.3079 72.9976 96.7722 71.6721 97.7122 70.6484Z" fill="white"/>
<path d="M282.893 152.87C281.956 153.925 280.592 154.453 278.798 154.457L226.298 154.552C213.569 154.575 202.791 149.497 193.961 139.314C187.745 131.573 184.629 122.807 184.613 113.017L184.609 110.569C184.586 97.8423 189.664 87.0642 199.847 78.2355C207.588 72.0231 216.352 68.903 226.142 68.8867L278.643 68.7915C280.275 68.7877 281.602 69.2558 282.621 70.1911C283.643 71.1302 284.155 72.4961 284.16 74.2878L284.171 80.5299C284.174 82.0813 283.706 83.3876 282.771 84.4478C281.834 85.5119 280.468 86.0434 278.674 86.0482L236.943 86.1242C226.744 86.1415 220.627 86.8902 218.59 88.3638C215.981 89.1068 212.723 91.3993 208.812 95.2519C204.418 100.822 202.224 106.346 202.235 111.824C202.247 119.104 205.685 125.722 212.55 131.681C217.042 135.436 223.778 137.302 232.753 137.285L278.768 137.202C280.317 137.198 281.623 137.663 282.685 138.591C283.748 139.526 284.281 140.879 284.286 142.661L284.296 148.979C284.297 150.519 283.828 151.816 282.893 152.87Z" fill="white"/>
</svg>
