<svg id="_лой_1" data-name="‘лой_1" xmlns="http://www.w3.org/2000/svg" viewBox="0 0 2923.88 2129.44"><title>tutorial</title><path d="M140.38,2117.73S-76.16,1845,63.16,1456.81c117.35-327,452.43-116.79,360.66-530.13-83.23-374.93,1.46-699.89,775.29-869.07C1698.59-51.59,2477.93-89.16,2303,737.27c-62.26,294.23,936.78,49.64,517.93,1380.46Z" style="fill:#ebf3fa"/><path d="M2306.94,1749.39c-13.35-72.73-135.24-60.48-135.24-60.48s-91.86,117.71-115.82,118.7,58.89-116,58.89-116c-45.58-8.26-167.34,38.32-167.34,38.32s-4.66,145.86-28.13,140.92S1930,1741.94,1930,1741.94c-45.57,9.64-91.38,58.06-91.38,58.06-58.89,80.16,47.08,151.65,47.08,151.65s-2.7,50.51-38.63,105.72h0s-7.91,10.09-16.56,27.64l12.12,1q1.89-4.76,4.07-9.14a.05.05,0,0,1,0-.05l.06-.13c1-1.8,2.4-4.37,4.16-7.49h0s0,0,0,0c4.3-6.94,7.25-12.09,9.16-15.82,0,0,0,0,0,0,13-21.83,31.44-50.15,42.62-55.48a23.48,23.48,0,0,1-2.14-5.78l2.14,5.78c17,46.18,120.17,62.22,179,55.16s35-25.44,6-54.49S1993.05,1971,1974.65,1959s10.61-20,48.9-13.84,54.35,46.3,116.1,57.4,118.91-102,118.91-102c-44.09,9.76-119.18-20.36-120.91-35.42s112.26-4.1,130.41-7.07S2320.3,1822.13,2306.94,1749.39Z" style="fill:#cde0fb"/><path d="M148.7,1948c-57.38-87.09,78.68-193.54,78.68-193.54s208.39,30.23,233.75,7.86S288,1701.71,288,1701.71c38.33-52.89,207.76-124.26,207.76-124.26s147.06,144,166.14,116S525.2,1572.67,525.2,1572.67c55.81-34.65,149.7-30,149.7-30,138.18,24.16,100,200.35,100,200.35s52,48.79,142.49,70h0s17.9,2.56,43.82,12l-11.36,12.86c-4.37-2-8.73-3.79-13.06-5.33,0,0,0,0-.08,0l-.18-.07c-2.77-.87-6.71-2.1-11.55-3.57h0c-11.16-2.87-19.18-5.23-24.76-7.18l-.05,0C865.62,1812,741,1987.25,674.22,2037.43s-60.41,8.18-59.3-49.61,69.61-120.4,76.67-150.55-30.33-10-63.3,33.62-10.16,100.17-62.21,171.72-220.62,12.13-220.62,12.13c54.41-33.07,101.49-137,88.55-154s-118.3,105.36-139.68,120S206.07,2035.11,148.7,1948Z" style="fill:#cde0fb"/><path d="M1876.17,1006.94s117.71-240,183.54-218.69S1876.17,1006.94,1876.17,1006.94Z" style="fill:#cde0fb"/><path d="M1791.52,1115.52s282-276.37,391.53-226S2116.27,994,2049,1008.72,1791.52,1115.52,1791.52,1115.52Z" style="fill:#cde0fb"/><path d="M926,1062.67S808.34,822.68,742.51,844,926,1062.67,926,1062.67Z" style="fill:#dfebfd"/><path d="M1010.69,1171.25s-282-276.38-391.53-226S686,1049.73,753.22,1064.45,1010.69,1171.25,1010.69,1171.25Z" style="fill:#dfebfd"/><path d="M710.46,430.58C750.73,340.64,904.65,395,904.65,395s81.72,181.4,112.42,190.26-39.58-168.74-39.58-168.74C1039.09,420.23,1182,519,1182,519s-40,190.28-8.11,191.31S1200.75,540,1200.75,540c55.94,26.88,100,104,100,104,50.91,122.38-108.87,181.43-108.87,181.43s-12.45,66.25,16.61,149.07h0s7.06,15.56,12.71,41l-16-2.53c-.63-4.5-1.42-8.88-2.39-13.11a.08.08,0,0,0,0-.08c0-.06,0-.12,0-.18-.7-2.65-1.73-6.42-3-11v0c-3.38-10.35-5.57-17.94-6.85-23.38a.11.11,0,0,1,0-.05c-9.91-32.37-24.85-74.86-37.63-85.3a31.43,31.43,0,0,0,4.58-6.8l-4.58,6.8c-36.67,54.4-175.23,42.58-249.11,14.88s-37.19-44,9.43-72.45,131.29-5.66,158.9-15.35-7.43-29.26-58.94-33.37-85,42.77-168.43,37.63S725.33,641.56,725.33,641.56c54,26.57,160.71,11.31,167.71-7.65s-144-40.77-166.59-50.35S670.19,520.52,710.46,430.58Z" style="fill:#dfebfd"/><path d="M1956.5,746.89V2090.72a23.6,23.6,0,0,1-23.6,23.6H897.29a23.61,23.61,0,0,1-23.61-23.6V746.89a23.6,23.6,0,0,1,23.61-23.6H1932.9A23.59,23.59,0,0,1,1956.5,746.89Z" style="fill:#f78248"/><path d="M985.36,723.29v1391H897.29a23.61,23.61,0,0,1-23.61-23.6V746.89a23.6,23.6,0,0,1,23.61-23.6Z" style="fill:#ea642f"/><path d="M1313,1108.52v-47.65h18.34V1108c0,13.58,6.79,20.61,18,20.61s18-6.79,18-20v-47.77h18.34v47.06c0,25.25-14.17,37.64-36.57,37.64S1313,1133.06,1313,1108.52Z" style="fill:#ffeddc"/><path d="M1398.59,1132.11l10.84-13c7.51,6.2,15.37,10.13,24.9,10.13,7.51,0,12-3,12-8.1,0-4.65-2.86-7-16.79-10.6-16.8-4.29-27.64-8.94-27.64-25.74,0-15.12,12.15-25.13,29.19-25.13a48.27,48.27,0,0,1,31,10.6l-9.53,13.82c-7.39-5.12-14.66-8.22-21.68-8.22s-10.73,3.22-10.73,7.51c0,5.48,3.58,7.26,18,10.95,16.92,4.41,26.45,10.49,26.45,25.26,0,16.56-12.63,25.85-30.62,25.85A53.1,53.1,0,0,1,1398.59,1132.11Z" style="fill:#ffeddc"/><path d="M1480.55,1060.87h62.9v16.32h-44.67v16.92h39.31v16.32h-39.31v17.51H1544v16.32h-63.49Z" style="fill:#ffeddc"/><path d="M1560.36,1060.87h38.12c10.6,0,18.82,3,24.3,8.46,4.65,4.64,7.15,11.2,7.15,19.3,0,13.46-7.27,21.92-17.87,25.85l20.37,29.78H1611l-18.11-26.69H1578.7v26.69h-18.34Zm36.93,40.5c8.93,0,14-4.76,14-12,0-7.86-5.48-11.91-14.41-11.91H1578.7v23.94Z" style="fill:#ffeddc"/><path d="M1206.34,1186.06h19.77l21.92,35.26,21.92-35.26h19.78v83.39H1271.5V1215L1248,1250.63h-.48l-23.22-35.26v54.08h-18Z" style="fill:#ffeddc"/><path d="M1338.32,1185.47h16.92l35.74,84H1371.8l-7.63-18.7h-35.26l-7.62,18.7h-18.71Zm19.3,49.08-11.08-27-11.08,27Z" style="fill:#ffeddc"/><path d="M1403.84,1186.06h16.91l39.07,51.35v-51.35h18.11v83.39h-15.6l-40.39-53v53h-18.1Z" style="fill:#ffeddc"/><path d="M1496.63,1233.71v-47.65H1515v47.18c0,13.58,6.79,20.61,18,20.61s18-6.79,18-20v-47.77h18.35v47.06c0,25.25-14.18,37.64-36.58,37.64S1496.63,1258.25,1496.63,1233.71Z" style="fill:#ffeddc"/><path d="M1613.61,1185.47h16.91l35.74,84h-19.18l-7.62-18.7H1604.2l-7.63,18.7h-18.7Zm19.29,49.08-11.07-27-11.08,27Z" style="fill:#ffeddc"/><path d="M1679.12,1186.06h18.34v66.71H1739v16.68h-59.92Z" style="fill:#ffeddc"/><g style="opacity:0.7000000000000001"><path d="M1230.83,1607.29l18.94-10.44a4.77,4.77,0,0,1,5,.27q2.84,2,5.86,3.72a81.27,81.27,0,0,0,11.5,5.53,4.73,4.73,0,0,1,3.06,4.36l.42,22.59a4.64,4.64,0,0,0,4.36,4.57l20.61,1.41a4.59,4.59,0,0,0,4.82-3.76l3.65-20.48a4.62,4.62,0,0,1,4-3.82,83.61,83.61,0,0,0,25.22-7.6,4.75,4.75,0,0,1,5.66,1.24l8.12,9.71a4.8,4.8,0,0,0,6.29.91l17-11.44a4.13,4.13,0,0,0,.92-.79,4.63,4.63,0,0,0,.58-5.34l-7.78-14.15-1.91-3.45a82.79,82.79,0,0,0,6.55-9.67,84.19,84.19,0,0,0,6.53-14.16,4.61,4.61,0,0,1,4.28-3.11l18.2-.32a4.78,4.78,0,0,0,4.68-4.46l1.08-15.76.3-4.52a4.84,4.84,0,0,0-4-5.1l-17.12-3.07a4.6,4.6,0,0,1-3.83-3.85,82.64,82.64,0,0,0-4.65-17.11c-.15-.49-.34-.93-.53-1.39a2.26,2.26,0,0,1-.16-.48,4.7,4.7,0,0,1,1.53-5l15.74-13.22a3.2,3.2,0,0,0,.5-.47,4.81,4.81,0,0,0,.4-5.79l-11.37-17a4.77,4.77,0,0,0-6.26-1.52l-19.75,10.9a4.6,4.6,0,0,1-5.2-.47,84.09,84.09,0,0,0-10.59-7.25c-2-1.15-4-2.22-6.08-3.19a4.84,4.84,0,0,1-2.77-4.3l-.41-21.72a4.65,4.65,0,0,0-4.33-4.54l-20.39-1.36a4.86,4.86,0,0,0-5.12,4l-2.89,16.21a4.75,4.75,0,0,1-4.37,3.93,83.13,83.13,0,0,0-25.1,5.46,4.74,4.74,0,0,1-5.39-1.38l-11.91-14.19a4.88,4.88,0,0,0-6.44-.92l-16.94,11.32a4.67,4.67,0,0,0-1.49,6.17l.44.83,9.05,16.44a4.78,4.78,0,0,1-.55,5.43v0a82.5,82.5,0,0,0-8.45,12c-1.34,2.31-2.52,4.65-3.63,7a4.69,4.69,0,0,1-4.2,2.77l-18.48.33a4.84,4.84,0,0,0-4.76,4.52l-1.37,20.3a5.29,5.29,0,0,0,.19,1.66,4.84,4.84,0,0,0,3.72,3.36l13.68,2.41a4.82,4.82,0,0,1,3.63,3.05,4.7,4.7,0,0,1,.28,1.31,83.06,83.06,0,0,0,8.54,31.7,4.66,4.66,0,0,1-.61,5.1,4.39,4.39,0,0,1-.57.57l-12.76,10.69a4.76,4.76,0,0,0-.9,6.27l.26.4,11.08,16.57A4.82,4.82,0,0,0,1230.83,1607.29Zm103.75-108.89a56.07,56.07,0,0,1,6.49,8c3.79,5.74,6.6,16.12,6.14,23,0,.74-.12,1.46-.18,2.19-4.53,44.1-58.43,58-83.63,20.74-3.29-4.87-5.81-12.9-6.37-19.63a30.67,30.67,0,0,1,0-4.38,51.49,51.49,0,0,1,4.09-17C1273.71,1482.67,1311.38,1474.8,1334.58,1498.4Z" style="fill:#ea642f"/></g><path d="M1420,1458.41l11.85-4a2.78,2.78,0,0,1,2.81.67c1,.93,1.93,1.84,3,2.71a46.85,46.85,0,0,0,6,4.32,2.74,2.74,0,0,1,1.31,2.79l-2.06,12.92a2.69,2.69,0,0,0,2,3l11.6,2.89a2.65,2.65,0,0,0,3.12-1.65l4.16-11.31a2.67,2.67,0,0,1,2.67-1.76,48.51,48.51,0,0,0,15.14-1.77,2.75,2.75,0,0,1,3.11,1.27l3.64,6.36a2.78,2.78,0,0,0,3.49,1.16l10.86-4.79a2.65,2.65,0,0,0,.61-.36,2.68,2.68,0,0,0,.87-3l-3-8.86-.74-2.15a48.36,48.36,0,0,0,9.88-12.26,2.66,2.66,0,0,1,2.75-1.33l10.4,1.66a2.75,2.75,0,0,0,3.12-2.07l2.22-8.87.62-2.54a2.79,2.79,0,0,0-1.74-3.31l-9.45-3.48a2.67,2.67,0,0,1-1.78-2.58,48.69,48.69,0,0,0-.92-10.23c0-.29-.1-.56-.16-.85a.9.9,0,0,1,0-.28,2.71,2.71,0,0,1,1.38-2.7l10.31-5.93a2.7,2.7,0,0,0,.33-.22,2.79,2.79,0,0,0,.82-3.26l-4.76-10.84a2.75,2.75,0,0,0-3.41-1.5l-12.36,4.21a2.67,2.67,0,0,1-2.92-.8,49.11,49.11,0,0,0-5.29-5.2c-1-.86-2.08-1.68-3.15-2.44a2.82,2.82,0,0,1-1.14-2.73l2-12.42a2.69,2.69,0,0,0-2-3l-11.48-2.85a2.8,2.8,0,0,0-3.32,1.76l-3.3,8.94a2.76,2.76,0,0,1-2.89,1.8,48.05,48.05,0,0,0-14.85.56,2.77,2.77,0,0,1-2.94-1.33l-5.34-9.3a2.85,2.85,0,0,0-3.58-1.18l-10.8,4.74a2.71,2.71,0,0,0-1.48,3.36l.17.52,3.49,10.29a2.75,2.75,0,0,1-.86,3h0a48,48,0,0,0-6,6c-1,1.18-1.91,2.39-2.79,3.64a2.72,2.72,0,0,1-2.67,1.16l-10.56-1.69a2.81,2.81,0,0,0-3.18,2.09l-2.83,11.43a3.22,3.22,0,0,0-.07,1,2.84,2.84,0,0,0,1.79,2.29l7.55,2.76a2.79,2.79,0,0,1,1.76,2.1,2.89,2.89,0,0,1,0,.78,48.07,48.07,0,0,0,1.65,18.93,2.69,2.69,0,0,1-1.25,3.11l-8.35,4.8a2.75,2.75,0,0,0-1.15,3.48l.11.25,4.63,10.57A2.79,2.79,0,0,0,1420,1458.41Zm70.16-51.52a32.09,32.09,0,0,1,2.88,5.25,25.27,25.27,0,0,1,1.16,13.72c-.1.42-.21.83-.32,1.23-7,24.67-39.17,27.11-49.75,3.34a26.17,26.17,0,0,1-1.64-11.83,17.06,17.06,0,0,1,.43-2.5,29.61,29.61,0,0,1,4-9.25A25.92,25.92,0,0,1,1490.12,1406.89Z" style="fill:#ffeddc"/><path d="M1454.71,1774.34l30.71-14.92a7.56,7.56,0,0,1,7.85.84q4.31,3.33,9,6.34a126.62,126.62,0,0,0,17.67,9.66,7.47,7.47,0,0,1,4.47,7.13l-1.18,35.67a7.34,7.34,0,0,0,6.51,7.56l32.39,3.9a7.24,7.24,0,0,0,7.9-5.53l7.43-32a7.28,7.28,0,0,1,6.63-5.69,132.15,132.15,0,0,0,40.39-9.92,7.52,7.52,0,0,1,8.84,2.4l12,16a7.59,7.59,0,0,0,9.84,2l27.79-16.64a6.84,6.84,0,0,0,1.52-1.19,7.26,7.26,0,0,0,1.35-8.36l-11.12-23-2.72-5.59a132,132,0,0,0,22.57-36.52,7.28,7.28,0,0,1,7-4.55l28.73,1a7.54,7.54,0,0,0,7.74-6.65l3-24.77.84-7.1A7.63,7.63,0,0,0,1736,1656l-26.75-6.23a7.27,7.27,0,0,1-5.72-6.38,131.54,131.54,0,0,0-5.94-27.37,23.41,23.41,0,0,0-.72-2.24,4.35,4.35,0,0,1-.22-.76,7.47,7.47,0,0,1,2.83-7.77l25.9-19.56a5.1,5.1,0,0,0,.82-.71,7.56,7.56,0,0,0,1.11-9.09l-16.55-27.73a7.54,7.54,0,0,0-9.75-2.92l-32,15.58a7.26,7.26,0,0,1-8.16-1.17,132.09,132.09,0,0,0-16.1-12.28q-4.61-3-9.34-5.54a7.66,7.66,0,0,1-4-7l1.13-34.28A7.33,7.33,0,0,0,1626,1493l-32-3.81a7.65,7.65,0,0,0-8.39,5.88l-5.88,25.32a7.54,7.54,0,0,1-7.22,5.85,131.46,131.46,0,0,0-40,6.55,7.47,7.47,0,0,1-8.39-2.6l-17.62-23.36a7.74,7.74,0,0,0-10.09-2l-27.63,16.48a7.39,7.39,0,0,0-2.87,9.6l.64,1.35,12.93,26.66a7.57,7.57,0,0,1-1.31,8.53l0,0a129.92,129.92,0,0,0-14.31,18.25c-2.29,3.53-4.36,7.12-6.3,10.79a7.4,7.4,0,0,1-6.84,4l-29.17-1a7.67,7.67,0,0,0-7.89,6.74l-3.81,31.91a8.25,8.25,0,0,0,.16,2.64,7.61,7.61,0,0,0,5.6,5.59l21.38,4.92a7.64,7.64,0,0,1,5.48,5.11,8.38,8.38,0,0,1,.33,2.09,131.13,131.13,0,0,0,10.87,50.69,7.39,7.39,0,0,1-1.37,8,8.51,8.51,0,0,1-1,.84l-21,15.82a7.5,7.5,0,0,0-1.93,9.81l.38.65,16.11,27A7.63,7.63,0,0,0,1454.71,1774.34Zm172.51-163.25a87.57,87.57,0,0,1,9.57,13.24c5.51,9.35,9.09,25.94,7.8,36.74-.13,1.16-.29,2.3-.46,3.44-10.73,69.18-96.87,86.66-133.58,25.88-4.79-8-8.11-20.82-8.43-31.47a45.93,45.93,0,0,1,.31-6.91,81.06,81.06,0,0,1,7.83-26.41C1532.5,1581.31,1592.55,1572,1627.22,1611.09Z" style="fill:#ea642f"/><path d="M1026.24,696.8s-27.72-.59-28.66,26.49h58.27s6.11-20.21,24-13.24V696.8Z" style="fill:#7999e2"/><path d="M1026.24,696.8s49.35,4.7,51.23,47,0,126.88,0,126.88l37.59-14.09,30.07,14.09V741.91s-2.81-38.53-43.23-45.11Z" style="fill:#aec3ff"/><path d="M1768.66,723.35h-103.8c-7.19-5-20.74-16.08-33.61-34.89q-3.72-5.41-7.29-11.7C1610.64,653.19,1733.84,707.62,1768.66,723.35Z" style="fill:#233862"/><path d="M1704.66,954.3c2.79,3.23,3.12,6.82,1.7,10.65a.05.05,0,0,1,0,0c-2.61,7.08-11.15,14.94-21,22.78-1.27,1-2.39,1.92-3.38,2.77l-.75.67-.59.52c-9.24,8.4-5.8,10.37-22.42,27.43-19,19.45-31.91,19.71-35.59,17.9-3.1-1.54,3.3-11.88,10.41-23.5l1-1.7c1-1.54,1.89-3.11,2.82-4.67,8.33-14,6.26-20.59,4.46-41.5-1.46-17-25.75-95.09-25.75-95.09l36.1-6s10.42,62.11,22.32,71.75c6.36,5.14,13.52,5.25,19.64,9.07.43.27.86.54,1.27.82C1698.33,948.64,1701.87,951.06,1704.66,954.3Z" style="fill:#ffb27d"/><path d="M1704.66,954.3c2.79,3.23,3.12,6.82,1.7,10.65a.05.05,0,0,1,0,0c-3.19,7.07-11.51,14.89-21.09,22.71-1.25,1-2.35,2-3.34,2.84l-.75.67-.59.52c-9.24,8.4-5.8,10.37-22.42,27.43-19,19.45-31.91,19.71-35.59,17.9-3.1-1.54,3.3-11.88,10.41-23.5a80.25,80.25,0,0,0,33.71-24.48c11.43-14.38,19.12-32.9,26.91-43.61.43.27.86.54,1.27.82C1698.33,948.64,1701.87,951.06,1704.66,954.3Z" style="fill:#233862"/><path d="M1414.07,929.72c-2.31,11.12-18.16,9.15-35.85,4.69s-13.52.73-38.73-2.24S1306.71,919.73,1306,916c-.66-3.33,11.81-4.42,25.19-5.87,1.69-.17,3.38-.37,5.07-.57,15.11-1.78,26.23-11.45,40-19.35,13-7.49,32.64-38.22,32.64-38.22l34.58,3s-18.35,27.45-25.46,39.39c-4.18,7-4,16.35-3.56,23.55A44.25,44.25,0,0,1,1414.07,929.72Z" style="fill:#ffb27d"/><path d="M1378.22,934.41c-17.7-4.45-13.52.73-38.73-2.24S1306.71,919.73,1306,916c-.66-3.33,11.81-4.42,25.19-5.87l.13.26a71.07,71.07,0,0,0,36,11.49c17.11.53,35.27-4.24,47.09-4a44.25,44.25,0,0,1-.35,11.83C1411.76,940.84,1395.91,938.87,1378.22,934.41Z" style="fill:#233862"/><path d="M1665.58,898.33s-2.41,1.57-6,3.56a80.55,80.55,0,0,1-15.76,6.85,63.87,63.87,0,0,1-16.22,2.11c-3.76,0-6.22-.22-6.22-.22l-41.44-113.94-7.48-20.6-8-21.92-2.77-7.63-13.49-37.1s33-84.55,66.59-44.24c4.09,4.91,7.93,12,11.52,20.82,2.45,6,4.78,12.72,7,20,1.66,5.48,3.27,11.28,4.82,17.31,4.19,16.41,7.89,34.54,11.14,52.74C1660.11,836.87,1665.58,898.33,1665.58,898.33Z" style="fill:#233862"/><path d="M1886.83,713.33a18,18,0,0,1-9.59,10H1724.32c-36.79-7.61-72-24.44-93.07-34.89-1.75-.87-3.38-1.69-4.92-2.44-7.2-3.58-12.17-6-14.2-6.44-12.78-2.67-19.35,18.16-30.18,43.77-2.21,5.22-4.58,10.62-7.23,16.07-1.89,3.89-5.44,8.93-10.24,14.75q-1.32,1.61-2.77,3.3c-37.18,43.42-132.89,124.29-132.89,124.29s-1.13,0-3,0c-5.85-.11-18.9-.65-25.15-3a38.5,38.5,0,0,1-8.15-4.23,18.6,18.6,0,0,1-3.87-3.48S1503.23,647,1562.52,586v0c.86-.89,1.71-1.73,2.55-2.54,6.48-6.33,12.23-10.5,17-12,20.2-6.36,150.9.74,150.9.74l4.17-6.79,7-.49,1.2-.08,5.82-.43h0l8-.56,11.94-.85,32.3-2.29,5.19-.37,59.72-4.24s2.72,6.14,6.4,16.32c1.44,4,3,8.56,4.64,13.63C1890,619.4,1902.48,673.78,1886.83,713.33Z" style="fill:#2b478b"/><path d="M1926.42,333.49c-29.85-25.47-51.14-31.78-54.1-72.11-1.6-21.89-31-94.31-80.72-88a75.15,75.15,0,0,1-12.53.73,46.47,46.47,0,0,0-25.27,6.34c-23.94,14-68,143.6-38.3,189.14a33,33,0,0,0,23.7,15.24L1743,387h0c5.34,3,11.22,6.3,17.44,9.82,35.13,19.81,81.13,46,104.69,59.24h0q2.13,1.21,4,2.27l6.85,3.81c2.76,1.51,4.37,2.35,4.5,2.35a102.81,102.81,0,0,0,14.57,4.11c11.85,2.46,28.44,3.84,40-3.71a63.79,63.79,0,0,0,12.66-11C1971.7,427.19,1978,377.5,1926.42,333.49Z" style="fill:#233862"/><path d="M1778.49,363.24c-.2.13,22.92,8.2,38.47,1.45,14.62-6.34,25.84-30.25,25.62-30.27-6.63-.35-13.87-6.2-19.21-44.29l-2.83,1-47.61,16.76s3.33,15.26,5.46,29.78C1780.18,349.86,1781.1,361.53,1778.49,363.24Z" style="fill:#ffb27d"/><path d="M1772.93,307.88s2,10.69,4.85,26c27.31-4.72,38.81-28,42.76-42.74Z" style="fill:#ed975d"/><path d="M1765.75,323s65-8.26,59.27-48.68-1.26-68.71-43-65.15-47.61,20.14-49,34.1S1748.69,324.06,1765.75,323Z" style="fill:#ffb27d"/><path d="M1735.54,221.11s41.34,36.13,69.61,39.22,39-5.91,39-5.91A110.58,110.58,0,0,1,1817.74,218a19.87,19.87,0,0,0-16.31-11.84C1781.24,204.31,1743,203.24,1735.54,221.11Z" style="fill:#233862"/><path d="M1761.57,218.08s-14,13.36-18.47,23.3c-4.29,9.6-5.72,32.62-2.42,41.8,0,0-21.38-42.31-9-62.71C1744.89,198.85,1761.57,218.08,1761.57,218.08Z" style="fill:#233862"/><path d="M1723.11,458.56c1,131.54-.2,104,14.1,116.63,3.45,3,13.18,4.88,26,5.82,40.31,3,111.25-3.18,114-10.62,9.48-25.72,3-33.78,11-73.2.84-4.2,1.87-8.73,3.08-13.67,6.67-27.08,13-36.26-9.62-80-20.54-39.61-41.94-71.79-43.9-70.65-55.15,32.22-59.39,4.78-59.39,4.78S1722.6,394.4,1723.11,458.56Z" style="fill:#aec3ff"/><path d="M1665.58,898.33s-2.41,1.57-6,3.56a80.55,80.55,0,0,1-15.76,6.85,63.87,63.87,0,0,1-16.22,2.11c-3.76,0-6.22-.22-6.22-.22l-41.44-113.94,12.14-20.6,31.07-52.74,10.2-17.31c1.66,5.48,3.27,11.28,4.82,17.31,4.19,16.41,7.89,34.54,11.14,52.74C1660.11,836.87,1665.58,898.33,1665.58,898.33Z" style="fill:#2b478b"/><path d="M1778.39,337.66s-56.59,9.19-63.4,33.47-46.87,167.07-46.87,167.07,28.69,5.37,42.06-7.81,47.06-122.82,47.06-122.82Z" style="fill:#aec3ff"/><path d="M1763.21,581c40.31,3,111.25-3.18,114-10.62,9.48-25.72,3-33.78,11-73.2l-19.06-54.91s2.78,61-15.32,76.93S1780,549.66,1771.14,563C1766.87,569.4,1764.06,575.84,1763.21,581Z" style="fill:#95b3ef"/><path d="M1809.6,555.68s-39.73-9.14-46.17-5.65-22.23,16.23-24.22,20.69,14.31-3.29,19.61-4.67c3.43-.9,12.42,2.3,16.88,3.82,18.73,6.39,30.26,3.25,30.26,3.25Z" style="fill:#ffb27d"/><path d="M1837.82,332.86s53.4,3.67,71.71,29.59c25.78,36.5,76.33,191.61,46.59,212-33.5,23-151.75,5-151.75,5s-3.81-18.44,1.74-27.3,94.7-22.63,98.84-26.71-50.81-80.52-50.73-92.85S1837.82,332.86,1837.82,332.86Z" style="fill:#aec3ff"/><path d="M1761.42,561.09s-8.41,10.69-11.15,12a8.18,8.18,0,0,1-4.5.93l5.68-10.07Z" style="fill:#ffb27d"/><path d="M1763.43,550l-24.32,11.6s1,1.69,4,1.58,10.54-2.82,10.54-2.82Z" style="fill:#ffb27d"/><polygon points="1755.45 584.41 1563.73 583.05 1507.07 439.23 1698.5 440.58 1755.45 584.41" style="fill:#f99746"/><polygon points="1561.52 577.45 1814.7 579.24 1814.66 584.82 1563.73 583.05 1561.52 577.45" style="fill:#ed7d2b"/><path d="M1612.63,511.68c-1.41-5.05,1.54-9.11,6.58-9.08s10.27,4.16,11.68,9.21-1.53,9.12-6.58,9.09S1614,516.74,1612.63,511.68Z" style="fill:#fff"/><rect x="635.43" y="1915.14" width="969.72" height="199.18" rx="78.79" transform="translate(2240.58 4029.45) rotate(180)" style="fill:#2b478b"/><path d="M1172,1988.23l-.7,43.53a69.75,69.75,0,0,0,68.62,70.84l514.82,8.22.14-8.67A88.71,88.71,0,0,1,1707,2022l.24-15.31a88.73,88.73,0,0,1,50.37-78.62v-.18l-514.82-8.22A69.73,69.73,0,0,0,1172,1988.23Z" style="fill:#ffeddc"/><path d="M1768.21,2114.32H1225.84c-35,0-62.39-43.78-62.39-99.66s27.4-99.65,62.39-99.65h542.37a8.15,8.15,0,0,1,0,16.3H1225.84c-25,0-46.08,38.17-46.08,83.35s21.1,83.35,46.08,83.35h542.37a8.16,8.16,0,0,1,0,16.31Z" style="fill:#1b3770"/><rect x="1324.84" y="1968.12" width="391.62" height="1.18" style="fill:#e8c2a3"/><rect x="1532.77" y="1986.26" width="177.07" height="1.18" style="fill:#e8c2a3"/><rect x="1400.95" y="2048.11" width="308.89" height="1.18" style="fill:#e8c2a3"/><path d="M1426.16,1968.71s16.43,6.88,18.38,30.09,0,35.58,0,35.58l-19.83-9.43-20,9.43v-36.29s-.74-29.38-28.07-29.38Z" style="fill:#f78248"/><g id="girl_2" data-name="girl 2"><path d="M879.29,1187.66s40.35-13.31,71.37,24,76.46,87.73,64.66,102-14.15,26,2.77,35.19,25.85,21.3.94,59.39c-16.25,24.87-19.72-8.23-69.08-6.59s-87.11-23.27-103.62-9.58C784.05,1443.72,793.12,1186.25,879.29,1187.66Z" style="fill:#233862"/><path d="M863.87,1378.16s-113.43,53.64-135.25,52.69S566,1384,566,1384l3.42,23.13s103.79,59.69,140.07,63.08c35.72,3.33,157.87-32.06,169.66-39.53S898.14,1385.72,863.87,1378.16Z" style="fill:#ed985f"/><path d="M849.75,1430.74c10.56,7.32,23.8,13.37,40.42,17.2,62.31,14.4,86.19-38.26,95.15-74.41a53.73,53.73,0,0,0-21.11-6.49c-4.5-.53-9.23-.88-13.16-1.07-7-5.36-17.42-27.29-19.72-61.35l-2.93.79-49.11,13.44s2.25,15.61,3.35,30.36c.85,11.55,1,22.58-1.2,25.28-3.83.83-6.13,1.37-6.13,1.37a.1.1,0,0,1,0,.05A316,316,0,0,0,849.75,1430.74Z" style="fill:#ffb27d"/><path d="M879.29,1318.86s2.26,15.59,3.35,30.36c27.82-2.79,40.73-29.27,45.76-43.8Z" style="fill:#ed985f"/><path d="M871,1333.51s66-3.64,63.13-44.73,3.67-69.23-38.61-68.64-49.36,16.85-51.73,30.8S853.73,1333.4,871,1333.51Z" style="fill:#ffb27d"/><path d="M844.09,1228c9.31-13.09,17.21-10.93,21.79-7.52,34.63-22.41,60,5.23,60,5.23,6.53,29.16,29,44.52,29,44.52s-11.49,8.29-39.71,3.15c-8.63-1.57-16.62-7-23.56-13.88a154.11,154.11,0,0,0,28.8,30.45c-34.2-12.93-50.8-58-52.47-62.79-3.77,3.9-11.14,12.33-13,20.2-2.54,10.7-13.48,27.42-19.81,27.14C835.08,1274.45,830.13,1247.58,844.09,1228Z" style="fill:#233862"/><path d="M844.56,1427.55c-3.57,31.82,1.73,45.86,34.73,119.35,27.89,62.12-3.76,118-3.76,118s67.84,54.55,116.55,75.65c27.06,11.74,48.24,13.15,48.56-10.86.37-27.16-12.39-61.42-23.09-93.35-9.23-27.53-16.94-53.35-13.42-71.39,6-30.48,25.4-152.27,6-191.47-7-14.08-34.38-15.35-64.44-14.11-9.36,6-45,28.86-59.65,26-.15,0-.43-.1-.81-.18-6.9-1.73-6.9-5.85-3.75-10.76,0,0-13.54.15-31.7,5.08-20.68,5.64-40.29,21-40.29,21S823.64,1418.71,844.56,1427.55Z" style="fill:#ffeddc"/><path d="M867.39,1808.49a30.54,30.54,0,0,1-22-13.37l-2.54-3.82c-18.69-28.3-26-114.94-68-207.25-10.24-22.47-47-26.52-57-51.92,0,0-24.67-82.34,47.22-84.77s192.52,229.11,194.42,253.39C961.36,1724.27,1007,1824.24,867.39,1808.49Z" style="fill:#1b3770"/><path d="M581.68,1806.59H684s3.83-16.31-2.89-27.42c-5.94-9.82-3.66-15.42.74-23.55a39.83,39.83,0,0,1-17.23,3.25c-5.1-.3-10.49-2.61-15.22-5.36-4.4,5-23.26,26.39-29.15,30.63C613.55,1788.94,583.74,1787.23,581.68,1806.59Z" style="fill:#233862"/><path d="M715.53,1471.16c-6.16,46.19-30.22,192-72.66,263.09-13.68,22.93,34.48,35.79,34.74,35.72,6.46-1.69,17.21-12,22.17-16.46,34.46-31,104.4-119,104.4-189.47,0-34.37.61-100-24.39-116.7C764.4,1437.06,718,1452.82,715.53,1471.16Z" style="fill:#1b3770"/><path d="M785.5,1532.61c10,25.4,38.19,22.3,48.44,44.77.44.94.86,1.9,1.28,2.85,5.26,11.66,10.22,23.32,14.92,34.85,9.8,24.06,24.37,74.42,35.33,115.22,7.44,27.69,13.21,51,14.66,58.63a114.23,114.23,0,0,0,6.12,20.87c156.72,24.17,137-83.81,128.36-109-7.84-23-144.43-261.08-216.32-258.64S785.5,1532.61,785.5,1532.61Z" style="fill:#2b478b"/><path d="M656.79,1806.59H759.1s3.83-16.31-2.89-27.42c-6-9.82-3.67-15.42.73-23.55a39.8,39.8,0,0,1-17.23,3.25c-5.1-.3-10.49-2.61-15.21-5.36-4.41,5-23.26,26.39-29.15,30.63C688.66,1788.94,658.85,1787.23,656.79,1806.59Z" style="fill:#1e3d7c"/><path d="M835.22,1580.23c5.26,11.66,10.22,23.32,14.92,34.85,9.8,24.06,24.37,74.42,35.33,115.22.08.17.18.34.27.51,40.74-63.54-18-183.91-18-183.91C853.78,1553.31,843.05,1565.23,835.22,1580.23Z" style="fill:#1e3d7c"/><path d="M775.26,1467.89c-6.16,46.18-14.84,195.24-57.28,266.36-13.68,22.93,34.47,35.79,34.73,35.72,6.46-1.69,17.22-12,22.18-16.46,34.46-31,104.4-119,104.4-189.47,0-34.37-40.34-97.26-65.33-113.94C798.56,1439.82,777.7,1449.54,775.26,1467.89Z" style="fill:#2b478b"/><polygon points="547.91 1329.52 569.12 1291.25 585.77 1337.71 685.39 1428.5 587.93 1448.36 547.91 1329.52" style="fill:#ea642f"/><polygon points="665.97 1355.04 704.85 1473.77 587.93 1448.36 547.91 1329.52 665.97 1355.04" style="fill:#f78248"/><polygon points="661.48 1352.25 552.71 1327.83 547.91 1329.52 660.68 1353.9 661.48 1352.25" style="fill:#fcecdb"/><polygon points="661.48 1352.25 662.78 1354.36 660.68 1353.9 661.48 1352.25" style="fill:#eac5a4"/><polygon points="547.91 1329.52 570.84 1293.11 585.84 1335.27 552.71 1327.83 547.91 1329.52" style="fill:#efdece"/><path d="M631.18,1375.66c3.69-.71,11.6-3.69,19.61-5.89-2.39-1.86-5-4.14-5.79-6.48-1.43-4.51-2.38-6,2.38-4.54s21.43,9.08,21.43,9.08l0,0c9.47,2.76,18.2,16.15,18.2,16.15s117.22,41.2,131.33,41.91c21.82,1.1,167-52.38,167-52.38,34.27,7.56,26.59,49.67,14.79,57.15s-116.28,45.48-178.21,46.2c-31.37.36-145.47-73-145.47-73s-13.33-6.09-23.81-4.18-34.77,0-40-8.58S625,1376.85,631.18,1375.66Z" style="fill:#ffb27d"/><path d="M910.51,1399.9s13,41.12,57.59,50.47c0,0,73.66-22.69,37-72.87C1005.08,1377.5,968.82,1350.55,910.51,1399.9Z" style="fill:#ffeddc"/><path d="M555.08,1378.76h0a11.39,11.39,0,0,1,.39-3.35s10.51-16.62,13.95-17.3c10.48-2.07,10.48,11.74,8.26,20.64-1.55,6.2-3.81,15.17-7,18.38l4.46,13.23C553.8,1401.66,555.08,1378.76,555.08,1378.76Z" style="fill:#ffb27d"/><path d="M992.08,1740.59c27.06,11.74,48.24,13.15,48.56-10.86.37-27.16-12.39-61.42-23.09-93.35,0,0-14.73,10.16-46.45-13.1C946.08,1604.94,977.63,1699.72,992.08,1740.59Z" style="fill:#2b478b"/></g><path d="M395,2063a49.22,49.22,0,0,0,.39,6.35,52,52,0,0,0,51.66,45.7h732a52.06,52.06,0,0,0,0-104.11h-732A52,52,0,0,0,395,2063Z" style="fill:#f78248"/><path d="M450.85,2001.48h251a8,8,0,0,0,8-8h0a8,8,0,0,0-8-8h-251a8,8,0,0,0-8,8h0A8,8,0,0,0,450.85,2001.48Z" style="fill:#f78248"/><rect x="464.72" y="2001.48" width="27.21" height="9.42" transform="translate(956.64 4012.39) rotate(180)" style="fill:#ea642f"/><path d="M401.33,2087.86A52.17,52.17,0,0,0,447.07,2115H602.13v-27.15Z" style="fill:#ea642f"/><path d="M1328.07,2047.71v30.49a36.81,36.81,0,0,1-36.8,36.81H528.72a36.77,36.77,0,0,1-36.79-36.81v-30.49a36.79,36.79,0,0,1,36.79-36.81h762.55A36.8,36.8,0,0,1,1328.07,2047.71Z" style="fill:#f99746"/><path d="M1326.78,2087.86a36.77,36.77,0,0,1-35.51,27.15H528.72a36.78,36.78,0,0,1-35.51-27.15Z" style="fill:#ef873a"/><path d="M1252.33,2063.15c0,16.17,5.88,30.62,15.14,40.19.22.21.41.42.62.63,7.17,7.14,16.24,11.41,26.13,11.41,15.43,0,53.7-23.29,77.41-38.76,11.81-7.71,20-13.47,20-13.47s-8.21-5.77-20-13.48c-23.71-15.48-62-38.77-77.41-38.77a34.54,34.54,0,0,0-12.82,2.48,42,42,0,0,0-17.65,13.93,57.47,57.47,0,0,0-10.6,25.48c0,.11,0,.22,0,.33A64.38,64.38,0,0,0,1252.33,2063.15Z" style="fill:#cde0fb"/><path d="M1252.33,2063.15c0,16.17,5.88,30.62,15.14,40.19L1384.84,2063l-131.73-9.84A64.38,64.38,0,0,0,1252.33,2063.15Z" style="fill:#a6c7ed"/><path d="M1263.75,2027.31l117.08,32-99.43-45.9A42,42,0,0,0,1263.75,2027.31Z" style="fill:#e3f0ff"/><path d="M1364,2063.15c0,6.21,3.18,11.51,7.64,13.47,11.81-7.71,20-13.47,20-13.47s-8.21-5.77-20-13.48C1367.17,2051.62,1364,2056.92,1364,2063.15Z" style="fill:#2e3552"/><path d="M2181.28,1325.3s-3.55-8-5.85-11.77-12.14-14.87-13.81-12.36-8.37,19.4-4.81,24.13-.23,13,17.46,18Z" style="fill:#ffb27d"/><path d="M2377.83,1274.84s-90.54,75.58-125.84,68.58c-27.61-5.47-70-20-70-20l-8.48,21.68s38,51.53,77.61,51.87c61.92.53,107.67-26.81,107.67-26.81Z" style="fill:#95b3ef"/><path d="M2536.61,2072s-2.63,42.4-10.83,43c-1.09.08-41.6.08-41.6.08l-51.72-.3s.34-12.46,15.46-15.1,40.42-13.26,49.58-33.24C2507.13,2045.43,2536.61,2072,2536.61,2072Z" style="fill:#1c3d72"/><path d="M2539.59,2074.94s-15.72,5.26-28,5.26a102.85,102.85,0,0,1-26.14-3.73s-3-28.62-19.24-91.69c-8.55-33-20.74-75.56-38.09-128.37-48-146-62.56-231.35-63.89-239.44-.07-.42-.1-.63-.1-.63l.16-.08,147.48-64.75s-18.23,201.17,5,278.39a328.47,328.47,0,0,1,8.44,37C2539.93,1950.76,2539.59,2074.94,2539.59,2074.94Z" style="fill:#2b478b"/><path d="M2466.22,1984.78c-8.55-33-20.74-75.56-38.09-128.37-48-146-62.56-231.35-63.89-239.44,0-.24,0-.47.06-.71l147.48-64.75s-18.23,201.17,5,278.39C2520.06,1840.69,2466.22,1984.78,2466.22,1984.78Z" style="fill:#233862"/><path d="M2421.42,2072s-2.62,42.4-10.83,43c-1.09.08-41.6.08-41.6.08l-51.72-.3s.34-12.46,15.46-15.1,40.42-13.26,49.58-33.24C2391.94,2045.43,2421.42,2072,2421.42,2072Z" style="fill:#1c3d72"/><path d="M2337.81,1556.25s-1.91,130.36,20.64,290.42,14.91,228,14.91,228,15.49,5,21.75,5.53c15.93,1.3,32.27-3.73,32.27-3.73s32.28-160.12,23-240.23,44.2-274.91,44.2-274.91Z" style="fill:#2b478b"/><path d="M2442.38,1251.19l-28.78,18.88-26.23-7.42c-4.79-6.83-6.06-20-6.13-31.44a195.4,195.4,0,0,1,1-20.93l38.84-17.14,14.49-6.39c0,.23-1.13,11.9-1.28,13.61C2431.61,1230.62,2442.38,1251.19,2442.38,1251.19Z" style="fill:#ffb27d"/><path d="M2337.15,1592.49c35.83,34.6,171.44,28.78,179.8-9.34s-9.12-324.48-70.32-342.47c-12.71-3.73-80.61,18.22-80.61,18.22a429.46,429.46,0,0,0-17.64,63.36c-1.36,6.91-5.32,80.09-8.28,148.55-1.38,32-2.55,63-3.15,85.71C2336.41,1577.77,2336.38,1591.74,2337.15,1592.49Z" style="fill:#afcdfb"/><path d="M2431.42,1200.89c-7.89,13.32-35.53,25-50.18,30.32a195.4,195.4,0,0,1,1-20.93l38.84-17.14C2429.7,1193,2434.93,1194.94,2431.42,1200.89Z" style="fill:#fca56b"/><path d="M2367.62,1207.91s62.58,19.53,74.14-19.63,27.42-63-12.05-77.13-51.68-1.48-58.71,10.65S2351.64,1201.83,2367.62,1207.91Z" style="fill:#ffb27d"/><path d="M2373.45,1118s4,45.56,13.42,43.59,19.79-6.21,18.42,7.52,9.16,37.29,22.75,37.23c29.14-.12,60.81-74.9,52.83-89.09C2457.85,1076.37,2340.18,1068.11,2373.45,1118Z" style="fill:#163560"/><path d="M2382.66,1241.67c.81-.34,46.59-20.87,51.94-19.11s12,18.12,12,18.12L2366,1258.91S2372.36,1246,2382.66,1241.67Z" style="fill:#95b3ef"/><path d="M2097.65,1463.45l256.62,241.61c5,4.74,11.38,6.25,14.1,3.35l8.66-9.2c2.73-2.89.84-9.13-4.19-13.87l-256.63-241.61c-5-4.73-11.37-6.24-14.09-3.35l-8.66,9.2C2090.73,1452.47,2092.62,1458.71,2097.65,1463.45Z" style="fill:#1f4d84"/><path d="M2241.66,1599l112.61,106c5,4.74,11.38,6.25,14.1,3.35l8.66-9.2c2.73-2.89.84-9.13-4.19-13.87l-112.61-106Z" style="fill:#f78248"/><path d="M2110.7,1175.7c-76.11-80.91-203.4-84.77-284.29-8.66-1.07,1-2.13,2-3.16,3-77.85,76.42-80.64,201.41-5.53,281.26,76.12,80.9,203.42,84.79,284.33,8.67a201.06,201.06,0,0,0,8.65-284.32Zm-19.54,272.76a185.18,185.18,0,0,1-261.86-8c-70.11-74.52-66.54-191.76,8-261.87a185.26,185.26,0,0,1,253.88,269.86Z" style="fill:#1f4d84"/><g style="opacity:0.5"><path d="M1829.29,1440.47a185.21,185.21,0,0,0,261.88,8c74.52-70.11,78.09-187.35,8-261.88a185.23,185.23,0,0,0-261.87-8C1762.76,1248.71,1759.19,1366,1829.29,1440.47Z" style="fill:#b3cff9"/></g><path d="M2337,1556.52c141.4-100.77,129.64-235.22,129.64-235.22-51.68,29.15-103,93.6-126.49,149.51C2338.72,1502.83,2337.55,1533.82,2337,1556.52Z" style="fill:#95b3ef"/><path d="M2197.39,1510.63c-10-2.3-16.67-9.84-18.06-11.16,0,0-4.25.29.7,9.36.41.76,1.33,2.71,2,4.09a.89.89,0,0,1-.74,1.27c-5.76.43-11.54-1.84-22.63.47-1.53.32-2,4-1.91,5.54.1,2.64-.09,5.61,3,9.66,1.78,2.36,6.77,4.89,17.86,9.36,4.23,1.7,16.32.42,27.65-3.48l9.05-4.19-2.81-16.82-2.27.48C2205.63,1516,2201.16,1511.55,2197.39,1510.63Z" style="fill:#ffb27d"/><path d="M2422.71,1258.91s127.05,24.19-37.38,208.18c-26.3,29.42-168.38,67.74-168.38,67.74s-14.41-12.27-7.15-22.19c0,0,97.83-71,119.36-82.34,9.68-5.08,37.58-113.38,53.36-139.47S2422.71,1258.91,2422.71,1258.91Z" style="fill:#afcdfb"/><path d="M2177.84,1327.53s-4.16-7.94-5-12.13-6-16.4-8.2-18.56c-.86-.86-3.71.26-4,4-.15,1.61.64,4.54,2,8,2.27,5.68,1.9,13.39,2.68,16C2167.32,1331.21,2177.84,1327.53,2177.84,1327.53Z" style="fill:#ffb27d"/><path d="M585.88,1915.14h614.9a54.4,54.4,0,0,0,54.4-54.41h0a54.4,54.4,0,0,0-54.4-54.4H585.88a54.41,54.41,0,0,0-54.4,54.4h0A54.41,54.41,0,0,0,585.88,1915.14Z" style="fill:#699dee"/><path d="M931.92,1846.2,931.4,1870c-.46,21,22.47,38.31,51.2,38.64l384.22,4.49.1-4.73c-21.56-8.2-36.11-24.79-35.7-43.75l.19-8.35c.41-19,15.68-35.2,37.58-42.89v-.1l-384.22-4.48C956.05,1808.44,932.37,1825.2,931.92,1846.2Z" style="fill:#ffeddc"/><path d="M1376.87,1915H972.1c-26.11,0-46.56-23.88-46.56-54.36s20.45-54.36,46.56-54.36h404.77c3.36,0,6.09,2,6.09,4.45s-2.73,4.45-6.09,4.45H972.1c-18.64,0-34.39,20.82-34.39,45.46s15.75,45.47,34.39,45.47h404.77c3.36,0,6.09,2,6.09,4.44S1380.23,1915,1376.87,1915Z" style="fill:#4b87dd"/><rect x="1045.99" y="1835.18" width="292.27" height="0.75" style="fill:#e8c2a3"/><rect x="1201.17" y="1845.08" width="132.14" height="0.75" style="fill:#e8c2a3"/><rect x="1102.79" y="1878.82" width="230.52" height="0.75" style="fill:#e8c2a3"/><rect y="2114.32" width="2916.62" height="15.12" rx="3.73" style="fill:#2e3552"/></svg>